<svg width="95" height="84" viewBox="0 0 95 84" fill="none" xmlns="http://www.w3.org/2000/svg">
<path d="M76.3816 30.2703H84.2295V52.6927C84.2295 53.8821 83.757 55.0227 82.916 55.8638C82.075 56.7048 80.9344 57.1772 79.745 57.1772H41.6268C40.4375 57.1772 39.2968 56.7048 38.4558 55.8638C37.6148 55.0227 37.1423 53.8821 37.1423 52.6927V30.2703H67.4127" fill="url(#paint0_linear_16_211)"/>
<path fill-rule="evenodd" clip-rule="evenodd" d="M84.2295 30.2703H76.3816H71.8971C70.1051 37.4365 66.1241 43.8659 60.508 48.6642C54.8918 53.4626 47.9198 56.3912 40.5618 57.0427C39.5866 56.8061 38.7192 56.2486 38.0991 55.4597C37.79 55.0665 37.5513 54.6273 37.3896 54.1614C37.6097 54.7962 37.9717 55.3797 38.4558 55.8638C39.2968 56.7048 40.4375 57.1773 41.6268 57.1773H79.745C80.9344 57.1773 82.075 56.7048 82.916 55.8638C83.757 55.0228 84.2295 53.8821 84.2295 52.6928V30.2703ZM37.1423 52.6928L37.1423 30.2703H37.1423V52.6928Z" fill="black" fill-opacity="0.2"/>
<path d="M36.0213 61.6617H85.3506C85.9453 61.6617 86.5156 61.8979 86.9361 62.3184C87.3566 62.739 87.5929 63.3093 87.5929 63.904V66.1462H33.779V63.904C33.779 63.3093 34.0152 62.739 34.4357 62.3184C34.8562 61.8979 35.4266 61.6617 36.0213 61.6617Z" fill="url(#paint1_linear_16_211)"/>
<path d="M94.3196 65.0251H27.0522V67.2673H94.3196V65.0251Z" fill="#69E3F7"/>
<path d="M50.5958 58.2984C50.5958 59.1904 50.2415 60.0459 49.6107 60.6766C48.98 61.3074 48.1245 61.6617 47.2324 61.6617C46.3404 61.6617 45.4849 61.3074 44.8542 60.6766C44.2234 60.0459 43.8691 59.1904 43.8691 58.2984C43.8691 56.4407 47.2324 52.6927 47.2324 52.6927C47.2324 52.6927 50.5958 56.4407 50.5958 58.2984ZM64.0493 58.2984C64.0493 59.1904 63.6949 60.0459 63.0642 60.6766C62.4334 61.3074 61.5779 61.6617 60.6859 61.6617C59.7939 61.6617 58.9384 61.3074 58.3077 60.6766C57.6769 60.0459 57.3225 59.1904 57.3225 58.2984C57.3225 56.4407 60.6859 52.6927 60.6859 52.6927C60.6859 52.6927 64.0493 56.4407 64.0493 58.2984ZM77.5028 58.2984C77.5028 59.1904 77.1484 60.0459 76.5176 60.6766C75.8869 61.3074 75.0314 61.6617 74.1394 61.6617C73.2474 61.6617 72.3919 61.3074 71.7611 60.6766C71.1304 60.0459 70.776 59.1904 70.776 58.2984C70.776 56.4407 74.1394 52.6927 74.1394 52.6927C74.1394 52.6927 77.5028 56.4407 77.5028 58.2984Z" fill="#FF6B2A"/>
<path d="M93.1985 34.7548L84.2295 36.997V30.2703H93.1985V34.7548Z" fill="url(#paint2_linear_16_211)"/>
<path d="M28.1734 34.7548L37.1423 36.997V30.2703H28.1734V34.7548Z" fill="url(#paint3_linear_16_211)"/>
<path d="M67.4127 25.7858H37.1423V30.2703H67.4127V25.7858Z" fill="url(#paint4_linear_16_211)"/>
<path d="M37.7422 21.9011L35.5728 17.5568C35.8674 17.4141 36.1271 17.2087 36.3338 16.9549C36.5405 16.7011 36.6892 16.4052 36.7693 16.0878C36.8495 15.7705 36.8592 15.4395 36.7977 15.118C36.7363 14.7965 36.6052 14.4924 36.4137 14.2269C36.2223 13.9615 35.975 13.7412 35.6893 13.5815C35.4036 13.4218 35.0864 13.3267 34.7599 13.3026C34.4335 13.2786 34.1058 13.3263 33.7998 13.4424C33.4938 13.5586 33.2169 13.7403 32.9886 13.9748C32.5682 13.5542 31.9979 13.3179 31.4032 13.3178C30.8085 13.3177 30.2381 13.5538 29.8175 13.9742C29.3969 14.3947 29.1606 14.965 29.1605 15.5597C29.1604 15.8541 29.2184 16.1457 29.331 16.4178C29.4437 16.6899 29.6088 16.9371 29.817 17.1453C29.5834 17.3742 29.4028 17.6514 29.2877 17.9575C29.1726 18.2635 29.1259 18.5911 29.1507 18.9171C29.1756 19.2431 29.2714 19.5598 29.4316 19.8449C29.5917 20.13 29.8123 20.3766 30.0778 20.5674C30.3433 20.7583 30.6474 20.8887 30.9686 20.9497C31.2899 21.0106 31.6206 21.0005 31.9376 20.9201C32.2545 20.8398 32.5501 20.6911 32.8035 20.4844C33.0569 20.2778 33.262 20.0182 33.4046 19.7239L37.7422 21.9011Z" fill="#FF8200"/>
<path d="M83.1084 5.60562H38.2635C37.6443 5.60562 37.1423 6.10756 37.1423 6.72674V8.96899C37.1423 9.58817 37.6443 10.0901 38.2635 10.0901H83.1084C83.7275 10.0901 84.2295 9.58817 84.2295 8.96899V6.72674C84.2295 6.10756 83.7275 5.60562 83.1084 5.60562Z" fill="url(#paint5_linear_16_211)"/>
<path fill-rule="evenodd" clip-rule="evenodd" d="M74.1394 5.60562H83.1083C83.7275 5.60562 84.2295 6.10756 84.2295 6.72674V8.96899C84.2295 9.58817 83.7275 10.0901 83.1083 10.0901H74.1394C74.7586 10.0901 75.2605 9.58817 75.2605 8.96899V6.72674C75.2605 6.10756 74.7586 5.60562 74.1394 5.60562Z" fill="black" fill-opacity="0.2"/>
<path d="M57.3226 1.12112H64.0493C64.3466 1.12112 64.6318 1.23924 64.8421 1.44949C65.0523 1.65974 65.1704 1.94491 65.1704 2.24225V5.60561H56.2014V2.24225C56.2014 1.94491 56.3196 1.65974 56.5298 1.44949C56.7401 1.23924 57.0252 1.12112 57.3226 1.12112Z" fill="url(#paint6_linear_16_211)"/>
<path d="M83.6286 21.9011L85.7991 17.5568C85.5031 17.4153 85.2417 17.2106 85.0334 16.957C84.8252 16.7035 84.6751 16.4074 84.5938 16.0896C84.5124 15.7717 84.5018 15.4399 84.5628 15.1175C84.6237 14.7951 84.7546 14.49 84.9463 14.2237C85.1379 13.9575 85.3857 13.7365 85.6721 13.5764C85.9585 13.4164 86.2765 13.3211 86.6038 13.2974C86.931 13.2736 87.2595 13.322 87.566 13.439C87.8725 13.5561 88.1495 13.739 88.3776 13.9748C88.8005 13.5663 89.3669 13.3403 89.9548 13.3455C90.5428 13.3506 91.1051 13.5864 91.5209 14.0021C91.9366 14.4178 92.1724 14.9802 92.1775 15.5681C92.1826 16.156 91.9566 16.7224 91.5482 17.1453C91.784 17.3734 91.9669 17.6505 92.0839 17.957C92.201 18.2635 92.2493 18.592 92.2256 18.9192C92.2018 19.2464 92.1066 19.5645 91.9465 19.8509C91.7865 20.1372 91.5655 20.385 91.2992 20.5767C91.033 20.7684 90.7279 20.8993 90.4055 20.9602C90.0831 21.0211 89.7513 21.0105 89.4334 20.9292C89.1156 20.8479 88.8194 20.6978 88.5659 20.4895C88.3124 20.2813 88.1077 20.0199 87.9662 19.7239L83.6286 21.9011Z" fill="#FF8200"/>
<path d="M46.1113 19.0591C47.3497 19.0591 48.3536 18.0552 48.3536 16.8168C48.3536 15.5785 47.3497 14.5746 46.1113 14.5746C44.873 14.5746 43.8691 15.5785 43.8691 16.8168C43.8691 18.0552 44.873 19.0591 46.1113 19.0591Z" fill="#FFEFEF"/>
<path d="M60.6859 21.3013C61.9243 21.3013 62.9282 20.2974 62.9282 19.0591C62.9282 17.8207 61.9243 16.8168 60.6859 16.8168C59.4476 16.8168 58.4437 17.8207 58.4437 19.0591C58.4437 20.2974 59.4476 21.3013 60.6859 21.3013Z" fill="#FFEFEF"/>
<path d="M75.2605 19.0591C76.4989 19.0591 77.5028 18.0552 77.5028 16.8168C77.5028 15.5785 76.4989 14.5746 75.2605 14.5746C74.0222 14.5746 73.0183 15.5785 73.0183 16.8168C73.0183 18.0552 74.0222 19.0591 75.2605 19.0591Z" fill="#FFEFEF"/>
<path d="M76.3817 25.7858V40.3604C76.38 40.8563 76.2141 41.3376 75.9098 41.7291C75.6056 42.1206 75.1801 42.4002 74.7 42.5242C74.5181 42.5784 74.3291 42.6049 74.1394 42.6027C73.5453 42.6009 72.976 42.3641 72.5559 41.944C72.1357 41.5238 71.8989 40.9546 71.8972 40.3604V34.7548C71.8972 35.3495 71.6609 35.9198 71.2404 36.3403C70.8199 36.7608 70.2496 36.9971 69.6549 36.9971C69.0602 36.9971 68.4899 36.7608 68.0694 36.3403C67.6489 35.9198 67.4127 35.3495 67.4127 34.7548V25.7858H76.3817Z" fill="white"/>
<path d="M84.2295 25.7858H76.3817V30.2703H84.2295V25.7858Z" fill="url(#paint7_linear_16_211)"/>
<path d="M55.0803 13.4535H52.8381V15.6957H55.0803V13.4535Z" fill="#282828"/>
<path d="M68.5338 17.938H66.2915V20.1802H68.5338V17.938Z" fill="#282828"/>
<path d="M49.1832 61.0451C48.6119 61.4465 47.9307 61.6618 47.2325 61.6618C46.5343 61.6618 45.8531 61.4465 45.2817 61.0451C45.8281 60.06 46.4823 59.1387 47.2325 58.2984C47.9826 59.1387 48.6369 60.06 49.1832 61.0451ZM62.6367 61.0451C62.0654 61.4465 61.3842 61.6618 60.686 61.6618C59.9878 61.6618 59.3065 61.4465 58.7352 61.0451C59.2815 60.06 59.9358 59.1387 60.686 58.2984C61.4361 59.1387 62.0904 60.06 62.6367 61.0451ZM76.0902 61.0451C75.5189 61.4465 74.8376 61.6618 74.1394 61.6618C73.4412 61.6618 72.76 61.4465 72.1887 61.0451C72.735 60.06 73.3893 59.1387 74.1394 58.2984C74.8896 59.1387 75.5439 60.06 76.0902 61.0451Z" fill="#282828"/>
<path d="M67.4127 30.2703H37.1423V31.3914H67.4127V30.2703Z" fill="#282828"/>
<path d="M84.2295 30.2703H76.3817V31.3914H84.2295V30.2703Z" fill="#282828"/>
<path d="M76.3817 25.7858V40.3604C76.3799 40.9546 76.1431 41.5238 75.723 41.944C75.3028 42.3641 74.7336 42.6009 74.1394 42.6027C73.9497 42.6049 73.7607 42.5784 73.5789 42.5242C74.059 42.4002 74.4844 42.1206 74.7887 41.7291C75.093 41.3376 75.2589 40.8563 75.2605 40.3604V25.7858H76.3817Z" fill="#282828"/>
<path d="M65.1704 4.4845H56.2014V5.60562H65.1704V4.4845Z" fill="#282828"/>
<path d="M38.2635 42.7092H36.0213V44.8819H38.2635V42.7092Z" fill="#282828"/>
<path d="M93.1985 29.1492H85.3506V25.7858C85.3506 25.4885 85.2325 25.2033 85.0222 24.9931C84.812 24.7828 84.5268 24.6647 84.2295 24.6647H37.1423C36.845 24.6647 36.5598 24.7828 36.3496 24.9931C36.1393 25.2033 36.0212 25.4885 36.0212 25.7858V29.1492H28.1734C27.876 29.1492 27.5909 29.2673 27.3806 29.4776C27.1704 29.6878 27.0522 29.973 27.0522 30.2703V34.7548C27.0523 35.0049 27.136 35.2478 27.29 35.4448C27.444 35.6419 27.6594 35.7818 27.9021 35.8423L36.0212 37.8726V40.4725H38.2635V31.3914H66.2915V34.7548C66.2914 35.2929 66.4204 35.8232 66.6678 36.3012C66.9151 36.7791 67.2734 37.1907 67.7128 37.5014C68.1521 37.8122 68.6596 38.0129 69.1927 38.0869C69.7257 38.1608 70.2687 38.1058 70.776 37.9264V40.3604C70.776 41.2524 71.1304 42.1079 71.7611 42.7387C72.3919 43.3694 73.2474 43.7238 74.1394 43.7238C75.0314 43.7238 75.8869 43.3694 76.5176 42.7387C77.1484 42.1079 77.5028 41.2524 77.5028 40.3604V31.3914H83.1084V52.6927C83.1084 53.5848 82.754 54.4403 82.1233 55.071C81.4925 55.7018 80.637 56.0561 79.745 56.0561H77.9288C77.1008 54.579 76.1095 53.1996 74.9735 51.9438C74.8656 51.8314 74.7361 51.7419 74.5928 51.6808C74.4494 51.6197 74.2952 51.5882 74.1394 51.5882C73.9836 51.5882 73.8293 51.6197 73.686 51.6808C73.5426 51.7419 73.4131 51.8314 73.3053 51.9438C72.1693 53.1996 71.178 54.579 70.35 56.0561H64.4753C63.6473 54.579 62.656 53.1996 61.52 51.9438C61.4122 51.8314 61.2827 51.7419 61.1393 51.6808C60.996 51.6197 60.8417 51.5882 60.6859 51.5882C60.5301 51.5882 60.3759 51.6197 60.2325 51.6808C60.0892 51.7419 59.9597 51.8314 59.8518 51.9438C58.7158 53.1996 57.7245 54.579 56.8965 56.0561H51.0218C50.1938 54.579 49.2025 53.1996 48.0666 51.9438C47.9587 51.8314 47.8292 51.7419 47.6858 51.6808C47.5425 51.6197 47.3883 51.5882 47.2324 51.5882C47.0766 51.5882 46.9224 51.6197 46.7791 51.6808C46.6357 51.7419 46.5062 51.8314 46.3983 51.9438C45.2624 53.1996 44.271 54.579 43.4431 56.0561H41.6268C40.7348 56.0561 39.8793 55.7018 39.2486 55.071C38.6178 54.4403 38.2635 53.5848 38.2635 52.6927V47.123H36.0212V52.6927C36.023 54.1789 36.6142 55.6037 37.665 56.6545C38.7159 57.7054 40.1407 58.2966 41.6268 58.2984H42.748C42.7526 59.0879 42.9678 59.8619 43.3713 60.5406H36.0212C35.1292 60.5406 34.2737 60.895 33.643 61.5257C33.0122 62.1565 32.6579 63.012 32.6579 63.904V65.0251H27.0522V67.2673H94.3196V65.0251H88.714V63.904C88.714 63.012 88.3596 62.1565 87.7289 61.5257C87.0981 60.895 86.2426 60.5406 85.3506 60.5406H78.0005C78.404 59.8619 78.6192 59.0879 78.6239 58.2984H79.745C81.2312 58.2966 82.6559 57.7054 83.7068 56.6545C84.7577 55.6037 85.3488 54.1789 85.3506 52.6927V37.8726L93.4698 35.8423C93.7124 35.7818 93.9279 35.6419 94.0819 35.4448C94.2358 35.2478 94.3195 35.0049 94.3196 34.7548V30.2703C94.3196 29.973 94.2015 29.6878 93.9912 29.4776C93.781 29.2673 93.4958 29.1492 93.1985 29.1492ZM69.6549 58.2984C69.6595 59.0879 69.8747 59.8619 70.2782 60.5406H64.5471C64.9506 59.8619 65.1658 59.0879 65.1704 58.2984H69.6549ZM60.6859 54.4294C61.8765 55.9227 62.9282 57.6033 62.9282 58.2984C62.9282 58.893 62.6919 59.4634 62.2714 59.8839C61.8509 60.3044 61.2806 60.5406 60.6859 60.5406C60.0912 60.5406 59.5209 60.3044 59.1004 59.8839C58.6799 59.4634 58.4437 58.893 58.4437 58.2984C58.4437 57.5842 59.4964 55.9149 60.6859 54.4294ZM56.2014 58.2984C56.2061 59.0879 56.4213 59.8619 56.8248 60.5406H51.0936C51.4971 59.8619 51.7123 59.0879 51.7169 58.2984H56.2014ZM44.9902 58.2984C44.9902 57.5842 46.0429 55.9149 47.2324 54.4294C48.4231 55.9227 49.4747 57.6033 49.4747 58.2984C49.4747 58.893 49.2385 59.4634 48.818 59.8839C48.3975 60.3044 47.8271 60.5406 47.2324 60.5406C46.6378 60.5406 46.0674 60.3044 45.6469 59.8839C45.2264 59.4634 44.9902 58.893 44.9902 58.2984ZM86.4717 63.904V65.0251H34.9001V63.904C34.9001 63.6066 35.0182 63.3215 35.2285 63.1112C35.4387 62.901 35.7239 62.7829 36.0212 62.7829H85.3506C85.6479 62.7829 85.9331 62.901 86.1434 63.1112C86.3536 63.3215 86.4717 63.6066 86.4717 63.904ZM71.8971 58.2984C71.8971 57.5842 72.9499 55.9149 74.1394 54.4294C75.33 55.9227 76.3816 57.6033 76.3816 58.2984C76.3816 58.893 76.1454 59.4634 75.7249 59.8839C75.3044 60.3044 74.7341 60.5406 74.1394 60.5406C73.5447 60.5406 72.9744 60.3044 72.5539 59.8839C72.1334 59.4634 71.8971 58.893 71.8971 58.2984ZM29.2945 33.8792V31.3914H36.0212V35.5609L29.2945 33.8792ZM38.2635 29.1492V26.9069H66.2915V29.1492H38.2635ZM75.2605 40.3604C75.2605 40.6577 75.1424 40.9429 74.9321 41.1532C74.7219 41.3634 74.4367 41.4815 74.1394 41.4815C73.842 41.4815 73.5569 41.3634 73.3466 41.1532C73.1364 40.9429 73.0183 40.6577 73.0183 40.3604V34.7548C73.0183 34.4575 72.9001 34.1723 72.6899 33.962C72.4796 33.7518 72.1945 33.6337 71.8971 33.6337C71.5998 33.6337 71.3146 33.7518 71.1044 33.962C70.8941 34.1723 70.776 34.4575 70.776 34.7548C70.776 35.0521 70.6579 35.3373 70.4477 35.5475C70.2374 35.7578 69.9522 35.8759 69.6549 35.8759C69.3576 35.8759 69.0724 35.7578 68.8621 35.5475C68.6519 35.3373 68.5338 35.0521 68.5338 34.7548V26.9069H75.2605V40.3604ZM77.5028 29.1492V26.9069H83.1084V29.1492H77.5028ZM92.0773 33.8792L85.3506 35.5609V31.3914H92.0773V33.8792ZM29.0221 21.1085C29.6549 21.7121 30.4935 22.0523 31.368 22.0602C32.2424 22.0681 33.0872 21.7431 33.7308 21.1511L37.2365 22.9045C37.447 23.01 37.6854 23.0465 37.9178 23.0089C38.1503 22.9713 38.365 22.8614 38.5315 22.6949C38.698 22.5284 38.8078 22.3137 38.8454 22.0813C38.883 21.8489 38.8465 21.6105 38.7411 21.4L36.9876 17.8942C37.5436 17.3176 37.8755 16.5614 37.9236 15.7619C37.9717 14.9623 37.7329 14.1718 37.2501 13.5326C36.7673 12.8935 36.0723 12.4476 35.29 12.2752C34.5078 12.1029 33.6897 12.2154 32.983 12.5924C32.3436 12.2637 31.6173 12.1436 30.9062 12.2492C30.1951 12.3548 29.5349 12.6807 29.0187 13.181C28.5094 13.6917 28.1773 14.3522 28.0712 15.0655C27.965 15.7788 28.0904 16.5074 28.429 17.1442C28.0897 17.7809 27.9637 18.5097 28.0697 19.2234C28.1757 19.937 28.5079 20.5978 29.0176 21.1085H29.0221ZM30.6084 16.3527C30.5042 16.2486 30.4215 16.1249 30.3651 15.9888C30.3087 15.8527 30.2796 15.7068 30.2796 15.5595C30.2796 15.4122 30.3087 15.2663 30.3651 15.1302C30.4215 14.9941 30.5042 14.8704 30.6084 14.7663C30.8187 14.5561 31.1038 14.4381 31.4011 14.4381C31.6984 14.4381 31.9835 14.5561 32.1937 14.7663C32.404 14.9765 32.6891 15.0946 32.9863 15.0946C33.2836 15.0946 33.5687 14.9765 33.779 14.7663C33.8923 14.6464 34.0308 14.553 34.1844 14.4928C34.338 14.4326 34.503 14.407 34.6676 14.4179C34.8323 14.4288 34.9924 14.4759 35.1368 14.5558C35.2811 14.6358 35.406 14.7466 35.5026 14.8804C35.5992 15.0141 35.665 15.1676 35.6955 15.3297C35.7259 15.4919 35.7202 15.6588 35.6787 15.8185C35.6372 15.9782 35.561 16.1267 35.4555 16.2536C35.35 16.3804 35.2177 16.4824 35.0683 16.5522C34.9361 16.6178 34.8182 16.7088 34.7213 16.82C34.6244 16.9312 34.5504 17.0605 34.5035 17.2004C34.4566 17.3402 34.4378 17.488 34.4482 17.6351C34.4585 17.7823 34.4978 17.926 34.5638 18.0579L35.2364 19.3954L33.9001 18.7227C33.635 18.5904 33.3283 18.5683 33.047 18.6614C32.7657 18.7544 32.5327 18.9551 32.3989 19.2194C32.347 19.3296 32.2782 19.431 32.1948 19.5199C31.9815 19.7242 31.6976 19.8383 31.4022 19.8383C31.1068 19.8383 30.8229 19.7242 30.6096 19.5199C30.3994 19.3096 30.2813 19.0245 30.2813 18.7272C30.2813 18.4299 30.3994 18.1448 30.6096 17.9346C30.8186 17.7243 30.9358 17.4399 30.9356 17.1434C30.9354 16.847 30.8177 16.5626 30.6084 16.3527ZM64.0493 0H57.3225C56.7279 0 56.1575 0.236236 55.737 0.656738C55.3165 1.07724 55.0803 1.64756 55.0803 2.24224V4.48449H38.2635C37.6688 4.48449 37.0985 4.72073 36.678 5.14123C36.2575 5.56173 36.0212 6.13205 36.0212 6.72673V8.96898C36.0212 9.56366 36.2575 10.134 36.678 10.5545C37.0985 10.975 37.6688 11.2112 38.2635 11.2112H83.1084C83.703 11.2112 84.2734 10.975 84.6939 10.5545C85.1144 10.134 85.3506 9.56366 85.3506 8.96898V6.72673C85.3506 6.13205 85.1144 5.56173 84.6939 5.14123C84.2734 4.72073 83.703 4.48449 83.1084 4.48449H74.1394V6.72673H83.1084V8.96898H38.2635V6.72673H71.8971V4.48449H66.2915V2.24224C66.2915 1.64756 66.0553 1.07724 65.6348 0.656738C65.2143 0.236236 64.644 0 64.0493 0ZM57.3225 4.48449V2.24224H64.0493V4.48449H57.3225ZM92.3487 13.181C91.8324 12.6807 91.1723 12.3548 90.4612 12.2492C89.75 12.1436 89.0237 12.2637 88.3844 12.5924C87.6777 12.2154 86.8596 12.1029 86.0773 12.2752C85.2951 12.4476 84.6 12.8935 84.1172 13.5326C83.6344 14.1718 83.3956 14.9623 83.4437 15.7619C83.4919 16.5614 83.8238 17.3176 84.3797 17.8942L82.6263 21.4C82.5208 21.6105 82.4843 21.8489 82.5219 22.0813C82.5595 22.3137 82.6694 22.5284 82.8359 22.6949C83.0024 22.8614 83.2171 22.9713 83.4495 23.0089C83.6819 23.0465 83.9203 23.01 84.1308 22.9045L87.6366 21.1511C88.2802 21.743 89.1248 22.0681 89.9991 22.0604C90.8735 22.0527 91.7122 21.7128 92.3453 21.1096C92.8554 20.599 93.188 19.9381 93.2942 19.2242C93.4003 18.5103 93.2744 17.7812 92.935 17.1442C93.274 16.5078 93.3999 15.7794 93.2944 15.0661C93.1889 14.3528 92.8574 13.6921 92.3487 13.181ZM90.7623 19.5243C90.5488 19.7278 90.2651 19.8414 89.9702 19.8414C89.6752 19.8414 89.3916 19.7278 89.1781 19.5243C89.0948 19.4355 89.0259 19.3341 88.9741 19.2239C88.8803 19.0389 88.7371 18.8835 88.5604 18.7751C88.3837 18.6666 88.1803 18.6093 87.9729 18.6095C87.7993 18.6089 87.628 18.6493 87.4729 18.7272L86.1365 19.3999L86.8092 18.0635C86.8751 17.9318 86.9144 17.7884 86.9249 17.6416C86.9354 17.4947 86.9168 17.3472 86.8703 17.2074C86.8238 17.0677 86.7502 16.9385 86.6537 16.8273C86.5572 16.716 86.4398 16.6248 86.308 16.559C86.1591 16.4891 86.0273 16.3872 85.9221 16.2607C85.8169 16.1342 85.7409 15.986 85.6994 15.8268C85.6579 15.6676 85.6519 15.5011 85.682 15.3394C85.712 15.1776 85.7773 15.0244 85.8732 14.8907C85.9691 14.7569 86.0933 14.646 86.2369 14.5656C86.3805 14.4853 86.54 14.4375 86.7041 14.4258C86.8683 14.414 87.033 14.4385 87.1866 14.4976C87.3402 14.5566 87.4789 14.6487 87.5929 14.7674C87.8031 14.9776 88.0882 15.0957 88.3855 15.0957C88.6828 15.0957 88.9679 14.9776 89.1781 14.7674C89.3917 14.5636 89.6755 14.4499 89.9708 14.4499C90.266 14.4499 90.5498 14.5636 90.7634 14.7674C90.8676 14.8715 90.9503 14.9952 91.0067 15.1313C91.0632 15.2674 91.0922 15.4133 91.0922 15.5606C91.0922 15.708 91.0632 15.8538 91.0067 15.9899C90.9503 16.126 90.8676 16.2497 90.7634 16.3538C90.5532 16.5641 90.4351 16.8492 90.4351 17.1464C90.4351 17.4437 90.5532 17.7288 90.7634 17.9391C90.8676 18.0432 90.9503 18.1668 91.0067 18.3029C91.0632 18.4391 91.0922 18.5849 91.0922 18.7323C91.0922 18.8796 91.0632 19.0255 91.0067 19.1616C90.9503 19.2977 90.8676 19.4213 90.7634 19.5255L90.7623 19.5243ZM42.748 16.8168C42.748 17.482 42.9452 18.1323 43.3148 18.6854C43.6844 19.2385 44.2096 19.6696 44.8242 19.9242C45.4388 20.1787 46.1151 20.2454 46.7675 20.1156C47.4199 19.9858 48.0192 19.6655 48.4896 19.1951C48.96 18.7247 49.2803 18.1254 49.4101 17.473C49.5398 16.8206 49.4732 16.1443 49.2187 15.5297C48.9641 14.9152 48.533 14.3899 47.9799 14.0203C47.4268 13.6507 46.7765 13.4535 46.1113 13.4535C45.2193 13.4535 44.3638 13.8078 43.7331 14.4386C43.1023 15.0693 42.748 15.9248 42.748 16.8168ZM47.2324 16.8168C47.2324 17.0386 47.1667 17.2553 47.0435 17.4397C46.9203 17.6241 46.7452 17.7678 46.5404 17.8526C46.3355 17.9375 46.1101 17.9597 45.8926 17.9164C45.6751 17.8732 45.4754 17.7664 45.3186 17.6096C45.1618 17.4528 45.055 17.253 45.0117 17.0356C44.9685 16.8181 44.9907 16.5927 45.0755 16.3878C45.1604 16.1829 45.3041 16.0078 45.4885 15.8847C45.6728 15.7615 45.8896 15.6957 46.1113 15.6957C46.4087 15.6957 46.6938 15.8138 46.9041 16.0241C47.1143 16.2343 47.2324 16.5195 47.2324 16.8168ZM57.3225 19.0591C57.3225 19.7243 57.5198 20.3746 57.8894 20.9277C58.2589 21.4808 58.7842 21.9119 59.3988 22.1664C60.0134 22.421 60.6896 22.4876 61.3421 22.3578C61.9945 22.228 62.5938 21.9077 63.0642 21.4373C63.5345 20.967 63.8549 20.3677 63.9847 19.7152C64.1144 19.0628 64.0478 18.3866 63.7933 17.772C63.5387 17.1574 63.1076 16.6321 62.5545 16.2625C62.0014 15.893 61.3511 15.6957 60.6859 15.6957C59.7939 15.6957 58.9384 16.0501 58.3077 16.6808C57.6769 17.3116 57.3225 18.1671 57.3225 19.0591ZM61.807 19.0591C61.807 19.2808 61.7413 19.4976 61.6181 19.6819C61.4949 19.8663 61.3198 20.01 61.115 20.0949C60.9101 20.1797 60.6847 20.2019 60.4672 20.1587C60.2497 20.1154 60.05 20.0086 59.8932 19.8518C59.7364 19.695 59.6296 19.4953 59.5863 19.2778C59.5431 19.0603 59.5653 18.8349 59.6501 18.63C59.735 18.4252 59.8787 18.2501 60.0631 18.1269C60.2474 18.0037 60.4642 17.938 60.6859 17.938C60.9833 17.938 61.2684 18.0561 61.4787 18.2663C61.6889 18.4766 61.807 18.7617 61.807 19.0591ZM71.8971 16.8168C71.8971 17.482 72.0944 18.1323 72.464 18.6854C72.8335 19.2385 73.3588 19.6696 73.9734 19.9242C74.588 20.1787 75.2642 20.2454 75.9167 20.1156C76.5691 19.9858 77.1684 19.6655 77.6388 19.1951C78.1091 18.7247 78.4295 18.1254 78.5592 17.473C78.689 16.8206 78.6224 16.1443 78.3679 15.5297C78.1133 14.9152 77.6822 14.3899 77.1291 14.0203C76.576 13.6507 75.9257 13.4535 75.2605 13.4535C74.3685 13.4535 73.513 13.8078 72.8822 14.4386C72.2515 15.0693 71.8971 15.9248 71.8971 16.8168ZM76.3816 16.8168C76.3816 17.0386 76.3159 17.2553 76.1927 17.4397C76.0695 17.6241 75.8944 17.7678 75.6895 17.8526C75.4847 17.9375 75.2593 17.9597 75.0418 17.9164C74.8243 17.8732 74.6245 17.7664 74.4678 17.6096C74.311 17.4528 74.2042 17.253 74.1609 17.0356C74.1177 16.8181 74.1399 16.5927 74.2247 16.3878C74.3096 16.1829 74.4533 16.0078 74.6376 15.8847C74.822 15.7615 75.0388 15.6957 75.2605 15.6957C75.5578 15.6957 75.843 15.8138 76.0533 16.0241C76.2635 16.2343 76.3816 16.5195 76.3816 16.8168Z" fill="#282828"/>
<path d="M55.0803 13.4535H52.8381V15.6957H55.0803V13.4535Z" fill="#282828"/>
<path d="M68.5338 17.938H66.2915V20.1802H68.5338V17.938Z" fill="#282828"/>
<path d="M64.2077 29.4318C64.2077 29.1901 64.136 28.9539 64.0018 28.753C63.8675 28.5521 63.6767 28.3955 63.4535 28.3031C63.2303 28.2106 62.9846 28.1864 62.7477 28.2336C62.5107 28.2807 62.293 28.397 62.1221 28.5679C61.9513 28.7388 61.8349 28.9564 61.7878 29.1934C61.7407 29.4304 61.7648 29.676 61.8573 29.8993C61.9498 30.1225 62.1064 30.3133 62.3073 30.4475C62.5082 30.5818 62.7444 30.6534 62.986 30.6534C63.3099 30.6531 63.6204 30.5242 63.8494 30.2952C64.0785 30.0662 64.2073 29.7556 64.2077 29.4318ZM62.986 30.0426C62.8652 30.0426 62.7471 30.0068 62.6466 29.9396C62.5462 29.8725 62.4679 29.7771 62.4217 29.6655C62.3754 29.5539 62.3633 29.4311 62.3869 29.3126C62.4105 29.1941 62.4686 29.0853 62.5541 28.9998C62.6395 28.9144 62.7483 28.8562 62.8668 28.8327C62.9853 28.8091 63.1081 28.8212 63.2198 28.8674C63.3314 28.9136 63.4268 28.9919 63.4939 29.0924C63.561 29.1928 63.5968 29.3109 63.5968 29.4318C63.5967 29.5937 63.5323 29.749 63.4177 29.8635C63.3032 29.978 63.1479 30.0424 62.986 30.0426ZM27.5573 26.9884C27.799 26.9884 28.0352 26.9167 28.2361 26.7825C28.437 26.6483 28.5936 26.4575 28.686 26.2342C28.7785 26.011 28.8027 25.7654 28.7555 25.5284C28.7084 25.2914 28.5921 25.0737 28.4212 24.9029C28.2503 24.732 28.0327 24.6157 27.7957 24.5685C27.5587 24.5214 27.3131 24.5456 27.0898 24.638C26.8666 24.7305 26.6758 24.8871 26.5416 25.088C26.4073 25.2889 26.3357 25.5251 26.3357 25.7667C26.336 26.0906 26.4649 26.4011 26.6939 26.6302C26.9229 26.8592 27.2335 26.988 27.5573 26.9884ZM27.5573 25.1559C27.6782 25.1559 27.7963 25.1917 27.8967 25.2588C27.9972 25.3259 28.0755 25.4213 28.1217 25.533C28.1679 25.6446 28.18 25.7674 28.1564 25.8859C28.1329 26.0044 28.0747 26.1132 27.9893 26.1987C27.9038 26.2841 27.795 26.3423 27.6765 26.3658C27.558 26.3894 27.4352 26.3773 27.3236 26.3311C27.212 26.2848 27.1166 26.2065 27.0495 26.1061C26.9823 26.0056 26.9465 25.8875 26.9465 25.7667C26.9467 25.6048 27.0111 25.4495 27.1256 25.335C27.2401 25.2205 27.3954 25.156 27.5573 25.1559ZM47.5114 29.4318C47.6725 29.4318 47.83 29.384 47.9639 29.2945C48.0978 29.205 48.2022 29.0778 48.2639 28.929C48.3255 28.7802 48.3416 28.6164 48.3102 28.4584C48.2788 28.3004 48.2012 28.1553 48.0873 28.0414C47.9734 27.9275 47.8283 27.8499 47.6703 27.8185C47.5123 27.7871 47.3486 27.8032 47.1997 27.8648C47.0509 27.9265 46.9237 28.0309 46.8342 28.1648C46.7447 28.2988 46.697 28.4562 46.697 28.6173C46.6972 28.8332 46.7831 29.0402 46.9358 29.1929C47.0885 29.3456 47.2955 29.4315 47.5114 29.4318ZM47.5114 28.2101C47.592 28.2101 47.6707 28.234 47.7377 28.2787C47.8046 28.3235 47.8568 28.3871 47.8876 28.4615C47.9185 28.5359 47.9265 28.6178 47.9108 28.6967C47.8951 28.7757 47.8563 28.8483 47.7994 28.9053C47.7424 28.9622 47.6699 29.001 47.5909 29.0167C47.5119 29.0324 47.43 29.0244 47.3556 28.9935C47.2812 28.9627 47.2176 28.9105 47.1728 28.8435C47.1281 28.7766 47.1042 28.6978 47.1042 28.6173C47.1043 28.5093 47.1472 28.4058 47.2236 28.3295C47.2999 28.2531 47.4034 28.2102 47.5114 28.2101ZM34.4802 35.5401C34.6413 35.5401 34.7987 35.4924 34.9327 35.4029C35.0666 35.3134 35.171 35.1862 35.2326 35.0374C35.2943 34.8885 35.3104 34.7248 35.279 34.5668C35.2476 34.4088 35.17 34.2637 35.0561 34.1498C34.9422 34.0359 34.7971 33.9583 34.6391 33.9269C34.4811 33.8955 34.3173 33.9116 34.1685 33.9732C34.0197 34.0349 33.8925 34.1393 33.803 34.2732C33.7135 34.4071 33.6657 34.5646 33.6657 34.7257C33.666 34.9416 33.7519 35.1486 33.9046 35.3013C34.0572 35.454 34.2643 35.5399 34.4802 35.5401ZM34.4802 34.3185C34.5607 34.3185 34.6395 34.3423 34.7064 34.3871C34.7734 34.4318 34.8256 34.4954 34.8564 34.5699C34.8872 34.6443 34.8953 34.7261 34.8796 34.8051C34.8639 34.8841 34.8251 34.9567 34.7681 35.0136C34.7112 35.0706 34.6386 35.1094 34.5596 35.1251C34.4806 35.1408 34.3988 35.1327 34.3243 35.1019C34.2499 35.0711 34.1863 35.0189 34.1416 34.9519C34.0968 34.885 34.073 34.8062 34.073 34.7257C34.0731 34.6177 34.116 34.5142 34.1924 34.4379C34.2687 34.3615 34.3722 34.3186 34.4802 34.3185ZM4.7527 36.7618C4.91378 36.7618 5.07125 36.7141 5.20518 36.6246C5.33912 36.5351 5.44351 36.4079 5.50515 36.259C5.5668 36.1102 5.58293 35.9465 5.5515 35.7885C5.52008 35.6305 5.44251 35.4854 5.3286 35.3715C5.2147 35.2576 5.06958 35.18 4.91159 35.1486C4.7536 35.1171 4.58984 35.1333 4.44102 35.1949C4.2922 35.2566 4.165 35.3609 4.07551 35.4949C3.98601 35.6288 3.93825 35.7863 3.93825 35.9474C3.93849 36.1633 4.02438 36.3703 4.17707 36.523C4.32975 36.6757 4.53677 36.7616 4.7527 36.7618ZM4.7527 35.5401C4.83324 35.5401 4.91197 35.564 4.97894 35.6088C5.04591 35.6535 5.09811 35.7171 5.12893 35.7915C5.15975 35.8659 5.16781 35.9478 5.1521 36.0268C5.13639 36.1058 5.0976 36.1784 5.04065 36.2353C4.9837 36.2923 4.91114 36.3311 4.83215 36.3468C4.75315 36.3625 4.67127 36.3544 4.59686 36.3236C4.52245 36.2928 4.45885 36.2406 4.4141 36.1736C4.36936 36.1066 4.34547 36.0279 4.34547 35.9474C4.34558 35.8394 4.38852 35.7359 4.46487 35.6595C4.54121 35.5832 4.64473 35.5403 4.7527 35.5401Z" fill="#282828"/>
<path d="M1.49489 77.8916C1.9447 77.8916 2.30934 77.527 2.30934 77.0772C2.30934 76.6274 1.9447 76.2627 1.49489 76.2627C1.04508 76.2627 0.680435 76.6274 0.680435 77.0772C0.680435 77.527 1.04508 77.8916 1.49489 77.8916Z" fill="#282828"/>
<path d="M5.15991 76.2627H3.93823C3.72222 76.2627 3.51507 76.3485 3.36233 76.5013C3.20959 76.654 3.12378 76.8612 3.12378 77.0772C3.12378 77.2932 3.20959 77.5003 3.36233 77.6531C3.51507 77.8058 3.72222 77.8916 3.93823 77.8916H5.15991C5.37591 77.8916 5.58307 77.8058 5.73581 77.6531C5.88855 77.5003 5.97436 77.2932 5.97436 77.0772C5.97436 76.8612 5.88855 76.654 5.73581 76.5013C5.58307 76.3485 5.37591 76.2627 5.15991 76.2627ZM65.8366 76.2627H64.6149C64.3989 76.2627 64.1917 76.3485 64.039 76.5013C63.8862 76.654 63.8004 76.8612 63.8004 77.0772C63.8004 77.2932 63.8862 77.5003 64.039 77.6531C64.1917 77.8058 64.3989 77.8916 64.6149 77.8916H65.8366C66.0526 77.8916 66.2597 77.8058 66.4125 77.6531C66.5652 77.5003 66.651 77.2932 66.651 77.0772C66.651 76.8612 66.5652 76.654 66.4125 76.5013C66.2597 76.3485 66.0526 76.2627 65.8366 76.2627Z" fill="#282828"/>
<path d="M24.9126 75.9006C22.9433 75.9133 20.9763 76.0342 19.0203 76.2627H29.9268C28.267 76.0148 26.5908 75.8938 24.9126 75.9006Z" fill="white"/>
<path d="M44.8631 75.9006C43.1846 75.8937 41.5081 76.0148 39.848 76.2627H50.7551C48.7992 76.0342 46.8322 75.9133 44.8631 75.9006Z" fill="white"/>
<path d="M59.3156 75.8531C59.3195 75.8345 59.3213 75.8155 59.321 75.7964V43.7741C59.2717 43.5388 59.1647 43.3194 59.0095 43.1358C58.8544 42.9521 58.6561 42.8098 58.4324 42.7218C55.2298 41.5749 50.0721 40.8341 45.2926 40.8341C41.3392 40.8341 38.1685 41.3341 36.3644 42.242C36.0289 42.4094 35.667 42.5175 35.2947 42.5616V46.128C35.2947 46.236 35.2518 46.3396 35.1754 46.416C35.099 46.4923 34.9954 46.5352 34.8874 46.5352C34.7794 46.5352 34.6759 46.4923 34.5995 46.416C34.5231 46.3396 34.4802 46.236 34.4802 46.128V42.5616C34.1078 42.5175 33.7459 42.4093 33.4103 42.242C31.6066 41.3341 28.4356 40.8341 24.4823 40.8341C19.703 40.8339 14.5452 41.5749 11.3425 42.7218C11.1188 42.8098 10.9204 42.9521 10.7653 43.1358C10.6102 43.3194 10.5032 43.5388 10.4539 43.7741V75.7964C10.4536 75.8155 10.4554 75.8345 10.4593 75.8531C10.4702 75.8548 10.4813 75.8556 10.4925 75.8555C10.5123 75.8553 10.5321 75.8536 10.5517 75.8503L11.3234 75.7255C15.7341 75.0106 20.2949 74.2717 24.9126 74.2717C27.9249 74.227 30.9272 74.6301 33.821 75.4679C33.937 75.5031 34.0523 75.5413 34.1676 75.5799C34.2808 75.6177 34.3845 75.6503 34.4802 75.6775V49.3858C34.4802 49.2778 34.5231 49.1742 34.5995 49.0979C34.6759 49.0215 34.7794 48.9786 34.8874 48.9786C34.9954 48.9786 35.099 49.0215 35.1754 49.0979C35.2518 49.1742 35.2947 49.2778 35.2947 49.3858V75.6716C35.4076 75.6415 35.5305 75.6044 35.6717 75.5584C35.7838 75.5221 35.8962 75.4855 36.0093 75.4515C38.8866 74.6254 41.8699 74.228 44.8631 74.2719C49.4809 74.2719 54.0414 75.0108 58.4519 75.7255L59.224 75.8505C59.2433 75.8537 59.2628 75.8553 59.2824 75.8555C59.2935 75.8556 59.3046 75.8548 59.3156 75.8531Z" fill="white"/>
<path fill-rule="evenodd" clip-rule="evenodd" d="M60.8846 76.2627H62.0581C62.1739 76.2476 62.2917 76.2573 62.4035 76.2913C62.5153 76.3253 62.6186 76.3828 62.7064 76.4599C62.7942 76.537 62.8645 76.6319 62.9127 76.7384C62.9609 76.8448 62.9859 76.9603 62.9859 77.0772C62.9859 77.194 62.9609 77.3095 62.9127 77.416C62.8645 77.5224 62.7942 77.6174 62.7064 77.6944C62.6186 77.7715 62.5153 77.829 62.4035 77.863C62.2917 77.897 62.1739 77.9068 62.0581 77.8916H7.71679C7.60093 77.9068 7.48316 77.897 7.37137 77.863C7.25957 77.829 7.15632 77.7715 7.06851 77.6944C6.98069 77.6174 6.91033 77.5224 6.86213 77.416C6.81393 77.3095 6.789 77.194 6.789 77.0772C6.789 76.9603 6.81393 76.8448 6.86213 76.7384C6.91033 76.6319 6.98069 76.537 7.06851 76.4599C7.15632 76.3828 7.25957 76.3253 7.37137 76.2913C7.48316 76.2573 7.60093 76.2476 7.71679 76.2627H8.89028C8.84858 76.1107 8.82664 75.954 8.82498 75.7964V43.7741C8.82498 42.6813 9.74938 41.5622 10.7933 41.1884C14.1535 39.985 19.5264 39.205 24.4823 39.2052C28.3352 39.2052 31.9364 39.6766 34.1428 40.7871C34.3748 40.8999 34.6294 40.9585 34.8874 40.9585C35.1454 40.9585 35.4001 40.8999 35.6321 40.7871C37.8386 39.6764 41.439 39.2052 45.2926 39.2052C50.2481 39.2052 55.6216 39.9852 58.9816 41.1884C60.0255 41.5622 60.9499 42.6813 60.9499 43.7741V75.7964C60.9482 75.954 60.9263 76.1107 60.8846 76.2627Z" fill="white"/>
<path d="M68.2799 77.8916C68.7297 77.8916 69.0944 77.527 69.0944 77.0772C69.0944 76.6274 68.7297 76.2627 68.2799 76.2627C67.8301 76.2627 67.4655 76.6274 67.4655 77.0772C67.4655 77.527 67.8301 77.8916 68.2799 77.8916Z" fill="#282828"/>
<path d="M62.0581 76.2627H60.8846C60.9263 76.1107 60.9482 75.954 60.9499 75.7964V43.7741C60.9499 42.6813 60.0255 41.5622 58.9816 41.1884C55.6216 39.9852 50.2481 39.2052 45.2926 39.2052C41.439 39.2052 37.8386 39.6764 35.6321 40.7871C35.4001 40.8999 35.1454 40.9585 34.8874 40.9585C34.6294 40.9585 34.3748 40.8999 34.1428 40.7871C31.9364 39.6766 28.3352 39.2052 24.4823 39.2052C19.5264 39.205 14.1535 39.985 10.7933 41.1884C9.74938 41.5622 8.82498 42.6813 8.82498 43.7741V75.7964C8.82664 75.954 8.84858 76.1107 8.89028 76.2627H7.71679C7.60093 76.2476 7.48316 76.2573 7.37137 76.2913C7.25957 76.3253 7.15632 76.3828 7.06851 76.4599C6.98069 76.537 6.91033 76.6319 6.86213 76.7384C6.81393 76.8448 6.789 76.9603 6.789 77.0772C6.789 77.194 6.81393 77.3095 6.86213 77.416C6.91033 77.5224 6.98069 77.6174 7.06851 77.6944C7.15632 77.7715 7.25957 77.829 7.37137 77.863C7.48316 77.897 7.60093 77.9068 7.71679 77.8916H62.0581C62.1739 77.9068 62.2917 77.897 62.4035 77.863C62.5153 77.829 62.6185 77.7715 62.7064 77.6944C62.7942 77.6174 62.8645 77.5224 62.9127 77.416C62.9609 77.3095 62.9859 77.194 62.9859 77.0772C62.9859 76.9603 62.9609 76.8448 62.9127 76.7384C62.8645 76.6319 62.7942 76.537 62.7064 76.4599C62.6185 76.3828 62.5153 76.3253 62.4035 76.2913C62.2917 76.2573 62.1739 76.2476 62.0581 76.2627ZM19.0203 76.2627C20.9763 76.0342 22.9433 75.9133 24.9126 75.9006C26.5908 75.8938 28.267 76.0149 29.9268 76.2627H19.0203ZM39.848 76.2627C41.5081 76.0148 43.1846 75.8937 44.8631 75.9006C46.8322 75.9133 48.7992 76.0342 50.7551 76.2627H39.848ZM59.321 75.7964C59.3213 75.8155 59.3195 75.8345 59.3156 75.8531C59.3046 75.8548 59.2935 75.8556 59.2824 75.8555C59.2628 75.8553 59.2433 75.8537 59.224 75.8505L58.4519 75.7255C54.0414 75.0108 49.4809 74.2719 44.8631 74.2719C41.8699 74.228 38.8866 74.6254 36.0093 75.4515C35.8962 75.4855 35.7838 75.5221 35.6717 75.5584C35.5305 75.6044 35.4076 75.6415 35.2947 75.6716V49.3858C35.2947 49.2778 35.2518 49.1742 35.1754 49.0979C35.099 49.0215 34.9954 48.9786 34.8874 48.9786C34.7794 48.9786 34.6759 49.0215 34.5995 49.0979C34.5231 49.1742 34.4802 49.2778 34.4802 49.3858V75.6775C34.3845 75.6503 34.2808 75.6177 34.1676 75.5799C34.0523 75.5413 33.937 75.5031 33.821 75.4679C30.9272 74.6301 27.9249 74.227 24.9126 74.2717C20.2949 74.2717 15.7341 75.0106 11.3234 75.7255L10.5517 75.8503C10.5321 75.8536 10.5123 75.8553 10.4925 75.8555C10.4813 75.8556 10.4702 75.8548 10.4593 75.8531C10.4554 75.8345 10.4536 75.8155 10.4539 75.7964V43.7741C10.5032 43.5388 10.6102 43.3194 10.7653 43.1358C10.9204 42.9521 11.1188 42.8098 11.3425 42.7218C14.5452 41.5749 19.703 40.8339 24.4823 40.8341C28.4356 40.8341 31.6066 41.3341 33.4103 42.242C33.7459 42.4093 34.1078 42.5175 34.4802 42.5616V46.128C34.4802 46.236 34.5231 46.3396 34.5995 46.416C34.6759 46.4923 34.7794 46.5352 34.8874 46.5352C34.9954 46.5352 35.099 46.4923 35.1754 46.416C35.2518 46.3396 35.2947 46.236 35.2947 46.128V42.5616C35.667 42.5175 36.0289 42.4094 36.3644 42.242C38.1685 41.3341 41.3392 40.8341 45.2926 40.8341C50.0721 40.8341 55.2298 41.5749 58.4324 42.7218C58.6561 42.8098 58.8544 42.9521 59.0095 43.1358C59.1647 43.3194 59.2717 43.5388 59.321 43.7741V75.7964Z" fill="#282828"/>
<path d="M38.8569 44.8353C46.0823 42.9492 54.9767 45.2351 55.3519 45.3335C55.4476 45.3587 55.5309 45.4177 55.5863 45.4998C55.6416 45.5818 55.6651 45.6812 55.6525 45.7794C55.6399 45.8775 55.592 45.9677 55.5177 46.0331C55.4434 46.0985 55.3479 46.1346 55.2489 46.1347C55.2141 46.1347 55.1794 46.1302 55.1457 46.1214C55.0558 46.0981 46.0787 43.7921 39.0624 45.6234C39.0107 45.6369 38.9568 45.6401 38.9038 45.6328C38.8508 45.6254 38.7998 45.6077 38.7537 45.5807C38.7075 45.5536 38.6672 45.5178 38.6349 45.4751C38.6026 45.4325 38.5791 45.3839 38.5656 45.3321C38.5521 45.2804 38.5489 45.2265 38.5562 45.1735C38.5636 45.1205 38.5813 45.0695 38.6083 45.0234C38.6354 44.9772 38.6713 44.9369 38.7139 44.9046C38.7566 44.8723 38.8051 44.8488 38.8569 44.8353Z" fill="#282828"/>
<path d="M38.8569 47.2853C46.0823 45.3993 54.9767 47.6851 55.3519 47.7836C55.4476 47.8087 55.5309 47.8678 55.5863 47.9498C55.6416 48.0319 55.6651 48.1312 55.6525 48.2294C55.6399 48.3275 55.592 48.4177 55.5177 48.4831C55.4434 48.5485 55.3479 48.5846 55.2489 48.5847C55.2141 48.5847 55.1794 48.5803 55.1457 48.5714C55.0558 48.5481 46.0787 46.2422 39.0624 48.0734C39.0107 48.0869 38.9568 48.0901 38.9038 48.0828C38.8508 48.0754 38.7998 48.0577 38.7537 48.0307C38.7075 48.0036 38.6672 47.9678 38.6349 47.9251C38.6026 47.8825 38.5791 47.8339 38.5656 47.7821C38.5521 47.7304 38.5489 47.6765 38.5562 47.6235C38.5636 47.5705 38.5813 47.5195 38.6083 47.4734C38.6354 47.4272 38.6713 47.3869 38.7139 47.3546C38.7566 47.3223 38.8051 47.2988 38.8569 47.2853Z" fill="#282828"/>
<path d="M38.8569 49.7353C46.0823 47.8493 54.9767 50.1351 55.3519 50.2336C55.4476 50.2587 55.5309 50.3178 55.5863 50.3998C55.6416 50.4819 55.6651 50.5813 55.6525 50.6794C55.6399 50.7776 55.592 50.8678 55.5177 50.9331C55.4434 50.9985 55.3479 51.0346 55.2489 51.0347C55.2141 51.0347 55.1794 51.0303 55.1457 51.0214C55.0558 50.9981 46.0787 48.6922 39.0624 50.5235C39.0107 50.537 38.9568 50.5401 38.9038 50.5328C38.8508 50.5255 38.7998 50.5078 38.7537 50.4807C38.7075 50.4537 38.6672 50.4178 38.6349 50.3751C38.6026 50.3325 38.5791 50.2839 38.5656 50.2321C38.5521 50.1804 38.5489 50.1265 38.5562 50.0735C38.5636 50.0205 38.5813 49.9695 38.6083 49.9234C38.6354 49.8772 38.6713 49.8369 38.7139 49.8046C38.7566 49.7723 38.8051 49.7488 38.8569 49.7353Z" fill="#282828"/>
<path d="M14.7635 29.4362L15.3691 28.6401L14.9867 28.4235L14.5982 29.3153H14.5852L14.1902 28.4296L13.8013 28.6527L14.4003 29.4301V29.4427L13.4637 29.3218V29.7551L14.4068 29.6341V29.6468L13.8013 30.4238L14.1645 30.6534L14.5791 29.7551H14.5913L14.9737 30.6469L15.3752 30.4176L14.7635 29.6529V29.6403L15.7254 29.7551V29.3218L14.7635 29.4489V29.4362Z" fill="url(#paint8_linear_16_211)"/>
<path d="M20.9509 37.6035L20.6019 38.0511L20.8113 38.183L21.0499 37.6659H21.0572L21.2771 38.1794L21.5084 38.0474L21.1562 37.6068V37.5995L21.71 37.6659V37.4162L21.1562 37.4895V37.4822L21.5048 37.0237L21.2849 36.899L21.0609 37.4126H21.0536L20.8263 36.9023L20.6019 37.031L20.9473 37.4785V37.4859L20.4077 37.4162V37.6659L20.9509 37.5962V37.6035Z" fill="url(#paint9_linear_16_211)"/>
<path d="M62.986 43.1606V42.7358L62.0425 42.8608V42.8482L62.6366 42.0672L62.2616 41.8546L61.8804 42.7293H61.8674L61.4801 41.8607L61.0985 42.0798L61.6862 42.8421V42.8547L60.7675 42.7358V43.1606L61.6923 43.0421V43.0547L61.0985 43.817L61.4549 44.0422L61.8613 43.1606H61.8735L62.2485 44.0357L62.6423 43.8109L62.0425 43.0608V43.0482L62.986 43.1606Z" fill="url(#paint10_linear_16_211)"/>
<path d="M46.1684 37.5856L45.6561 38.2433L45.9631 38.4376L46.3142 37.6773H46.3243L46.6481 38.4319L46.9877 38.238L46.4701 37.5909V37.5799L47.2842 37.6773V37.3108L46.4701 37.4183V37.4077L46.9824 36.7337L46.6591 36.5505L46.33 37.3051H46.3195L45.9851 36.5558L45.6561 36.7447L46.1631 37.4024V37.413L45.3702 37.3108V37.6773L46.1684 37.5746V37.5856Z" fill="url(#paint11_linear_16_211)"/>
<path d="M48.7957 79.9278H45.4126C45.2079 79.9442 45.0168 80.0371 44.8775 80.188C44.7382 80.3389 44.6608 80.5368 44.6608 80.7422C44.6608 80.9476 44.7382 81.1455 44.8775 81.2964C45.0168 81.4473 45.2079 81.5403 45.4126 81.5567H48.7957C49.0005 81.5403 49.1915 81.4473 49.3309 81.2964C49.4702 81.1455 49.5476 80.9476 49.5476 80.7422C49.5476 80.5368 49.4702 80.3389 49.3309 80.188C49.1915 80.0371 49.0005 79.9442 48.7957 79.9278ZM24.3622 79.9278H20.9791C20.7743 79.9442 20.5833 80.0371 20.4439 80.188C20.3046 80.3389 20.2273 80.5368 20.2273 80.7422C20.2273 80.9476 20.3046 81.1455 20.4439 81.2964C20.5833 81.4473 20.7743 81.5403 20.9791 81.5567H24.3622C24.5669 81.5403 24.758 81.4473 24.8973 81.2964C25.0366 81.1455 25.114 80.9476 25.114 80.7422C25.114 80.5368 25.0366 80.3389 24.8973 80.188C24.758 80.0371 24.5669 79.9442 24.3622 79.9278ZM43.0319 79.9278H26.7429C26.5269 79.9278 26.3197 80.0136 26.167 80.1663C26.0142 80.3191 25.9284 80.5262 25.9284 80.7422C25.9284 80.9582 26.0142 81.1654 26.167 81.3181C26.3197 81.4709 26.5269 81.5567 26.7429 81.5567H33.2341V82.3711H30.0007C29.7847 82.3711 29.5775 82.4569 29.4248 82.6097C29.2721 82.7624 29.1862 82.9696 29.1862 83.1856C29.1862 83.4016 29.2721 83.6087 29.4248 83.7615C29.5775 83.9142 29.7847 84 30.0007 84H40.1813C40.3973 84 40.6045 83.9142 40.7572 83.7615C40.91 83.6087 40.9958 83.4016 40.9958 83.1856C40.9958 82.9696 40.91 82.7624 40.7572 82.6097C40.6045 82.4569 40.3973 82.3711 40.1813 82.3711H36.5407V81.5567H43.0319C43.2479 81.5567 43.4551 81.4709 43.6078 81.3181C43.7606 81.1654 43.8464 80.9582 43.8464 80.7422C43.8464 80.5262 43.7606 80.3191 43.6078 80.1663C43.4551 80.0136 43.2479 79.9278 43.0319 79.9278Z" fill="url(#paint12_linear_16_211)"/>
<path d="M14.0157 66.5089C14.3907 66.4106 23.2848 64.1254 30.5107 66.0106C30.5625 66.0241 30.611 66.0476 30.6537 66.0799C30.6963 66.1122 30.7322 66.1525 30.7593 66.1987C30.7863 66.2448 30.804 66.2958 30.8113 66.3488C30.8187 66.4018 30.8155 66.4557 30.802 66.5074C30.7885 66.5592 30.765 66.6078 30.7327 66.6504C30.7004 66.6931 30.6601 66.729 30.6139 66.756C30.5678 66.7831 30.5168 66.8008 30.4638 66.8081C30.4108 66.8154 30.3569 66.8123 30.3051 66.7988C23.2882 64.9678 14.3119 67.2734 14.2219 67.2967C14.1882 67.3056 14.1535 67.31 14.1187 67.31C14.0197 67.3099 13.9242 67.2738 13.8499 67.2084C13.7756 67.1431 13.7277 67.0529 13.7151 66.9547C13.7025 66.8566 13.726 66.7572 13.7813 66.6751C13.8367 66.5931 13.92 66.534 14.0157 66.5089Z" fill="#282828"/>
<path d="M14.0157 68.9522C14.3907 68.854 23.2848 66.5687 30.5107 68.4539C30.5625 68.4674 30.611 68.491 30.6537 68.5233C30.6963 68.5555 30.7322 68.5959 30.7593 68.642C30.7863 68.6882 30.804 68.7392 30.8113 68.7922C30.8187 68.8451 30.8155 68.8991 30.802 68.9508C30.7885 69.0026 30.765 69.0511 30.7327 69.0938C30.7004 69.1364 30.6601 69.1723 30.6139 69.1994C30.5678 69.2264 30.5168 69.2441 30.4638 69.2515C30.4108 69.2588 30.3569 69.2556 30.3051 69.2421C23.2882 67.4112 14.3119 69.7168 14.2219 69.74C14.1882 69.7489 14.1535 69.7534 14.1187 69.7534C14.0197 69.7533 13.9242 69.7172 13.8499 69.6518C13.7756 69.5864 13.7277 69.4962 13.7151 69.3981C13.7025 69.2999 13.726 69.2005 13.7813 69.1185C13.8367 69.0364 13.92 68.9773 14.0157 68.9522Z" fill="#282828"/>
<path d="M14.0157 71.3956C14.3907 71.2974 23.2848 69.0121 30.5107 70.8973C30.5625 70.9108 30.611 70.9344 30.6537 70.9666C30.6963 70.9989 30.7322 71.0393 30.7593 71.0854C30.7863 71.1315 30.804 71.1826 30.8113 71.2355C30.8187 71.2885 30.8155 71.3424 30.802 71.3942C30.7885 71.4459 30.765 71.4945 30.7327 71.5372C30.7004 71.5798 30.6601 71.6157 30.6139 71.6427C30.5678 71.6698 30.5168 71.6875 30.4638 71.6948C30.4108 71.7021 30.3569 71.699 30.3051 71.6855C23.2882 69.8546 14.3119 72.1601 14.2219 72.1834C14.1882 72.1923 14.1535 72.1968 14.1187 72.1967C14.0197 72.1967 13.9242 72.1605 13.8499 72.0952C13.7756 72.0298 13.7277 71.9396 13.7151 71.8414C13.7025 71.7433 13.726 71.6439 13.7813 71.5618C13.8367 71.4798 13.92 71.4207 14.0157 71.3956Z" fill="#282828"/>
<path d="M37.6748 53.0508C37.5836 53.0508 37.496 53.0871 37.4315 53.1516C37.367 53.2161 37.3308 53.3036 37.3308 53.3949V68.5324C37.3308 68.6237 37.367 68.7112 37.4315 68.7757C37.496 68.8402 37.5836 68.8765 37.6748 68.8765H40.5991V68.1884H38.0188V56.4912H54.5325V63.5343C54.5394 63.5673 54.5559 63.5962 54.5601 63.6299C54.7507 63.4737 54.9867 63.396 55.2206 63.3905V53.3949C55.2206 53.3036 55.1844 53.2161 55.1199 53.1516C55.0553 53.0871 54.9678 53.0508 54.8766 53.0508H37.6748ZM38.0188 53.7389H54.5325V55.8031H38.0188V53.7389ZM39.0509 54.427C38.9597 54.427 38.8722 54.4632 38.8077 54.5278C38.7432 54.5923 38.7069 54.6798 38.7069 54.771C38.7069 54.8623 38.7432 54.9498 38.8077 55.0143C38.8722 55.0788 38.9597 55.1151 39.0509 55.1151C39.1422 55.1151 39.2297 55.0788 39.2942 55.0143C39.3587 54.9498 39.395 54.8623 39.395 54.771C39.395 54.6798 39.3587 54.5923 39.2942 54.5278C39.2297 54.4632 39.1422 54.427 39.0509 54.427ZM40.4271 54.427C40.3358 54.427 40.2483 54.4632 40.1838 54.5278C40.1193 54.5923 40.083 54.6798 40.083 54.771C40.083 54.8623 40.1193 54.9498 40.1838 55.0143C40.2483 55.0788 40.3358 55.1151 40.4271 55.1151C40.5183 55.1151 40.6058 55.0788 40.6704 55.0143C40.7349 54.9498 40.7711 54.8623 40.7711 54.771C40.7711 54.6798 40.7349 54.5923 40.6704 54.5278C40.6058 54.4632 40.5183 54.427 40.4271 54.427ZM41.8032 54.427C41.712 54.427 41.6245 54.4632 41.56 54.5278C41.4954 54.5923 41.4592 54.6798 41.4592 54.771C41.4592 54.8623 41.4954 54.9498 41.56 55.0143C41.6245 55.0788 41.712 55.1151 41.8032 55.1151C41.8945 55.1151 41.982 55.0788 42.0465 55.0143C42.111 54.9498 42.1473 54.8623 42.1473 54.771C42.1473 54.6798 42.111 54.5923 42.0465 54.5278C41.982 54.4632 41.8945 54.427 41.8032 54.427ZM48.0096 57.8673C47.9988 57.8673 47.988 57.8678 47.9773 57.8687C47.9214 57.8718 47.8672 57.8884 47.8192 57.9172C47.7713 57.946 47.7311 57.986 47.7021 58.0339L44.2665 63.5302C44.2426 63.5685 44.2264 63.6111 44.219 63.6557C44.2115 63.7003 44.2129 63.7458 44.223 63.7899C44.2332 63.8339 44.2519 63.8755 44.2782 63.9123C44.3044 63.949 44.3376 63.9803 44.3759 64.0042C44.4142 64.0282 44.4569 64.0444 44.5015 64.0518C44.546 64.0593 44.5916 64.0579 44.6356 64.0477C44.6796 64.0376 44.7212 64.0188 44.758 63.9926C44.7948 63.9664 44.8261 63.9332 44.85 63.8948L48.2849 58.3978C48.3178 58.3469 48.3367 58.2881 48.3396 58.2275C48.3424 58.1668 48.3292 58.1065 48.3013 58.0527C48.2733 57.9988 48.2316 57.9533 48.1804 57.9207C48.1292 57.8882 48.0703 57.8698 48.0096 57.8673ZM43.1684 58.5554C43.0791 58.5583 42.9945 58.5958 42.9324 58.66L40.8936 60.7001C40.866 60.7238 40.8423 60.7516 40.8234 60.7827C40.8185 60.7901 40.8139 60.7977 40.8097 60.8054C40.8094 60.8056 40.8092 60.8059 40.809 60.8061C40.8075 60.8093 40.8062 60.8125 40.8048 60.8157C40.8019 60.8212 40.7992 60.8267 40.7966 60.8322C40.7941 60.8384 40.7918 60.8446 40.7897 60.8508C40.788 60.8561 40.7864 60.8613 40.7849 60.8666C40.7834 60.8717 40.782 60.8767 40.7808 60.8818C40.7797 60.8863 40.7788 60.8909 40.778 60.8955C40.7775 60.8985 40.777 60.9015 40.7766 60.9045C40.7655 60.9654 40.771 61.0281 40.7926 61.0861C40.8141 61.1441 40.8509 61.1952 40.8991 61.2341L42.9324 63.2687C42.9641 63.3016 43.0021 63.3278 43.044 63.3458C43.086 63.3638 43.1311 63.3733 43.1768 63.3737C43.2225 63.3741 43.2678 63.3654 43.3101 63.3481C43.3524 63.3308 43.3908 63.3053 43.4231 63.273C43.4554 63.2407 43.4809 63.2023 43.4982 63.16C43.5155 63.1177 43.5242 63.0724 43.5238 63.0267C43.5234 62.981 43.5139 62.9359 43.4959 62.8939C43.4779 62.8519 43.4517 62.814 43.4188 62.7822L41.6016 60.9637L43.4181 59.1472C43.4683 59.0989 43.5026 59.0366 43.5166 58.9685C43.5306 58.9003 43.5236 58.8296 43.4965 58.7655C43.4695 58.7014 43.4236 58.647 43.365 58.6095C43.3065 58.572 43.2379 58.5531 43.1684 58.5554ZM49.372 58.5554C49.3034 58.5553 49.2363 58.5757 49.1793 58.614C49.1223 58.6523 49.0781 58.7068 49.0524 58.7704C49.0266 58.834 49.0205 58.9039 49.0348 58.971C49.0491 59.0382 49.0831 59.0995 49.1326 59.1472L50.9498 60.9637L49.1333 62.7822C49.0991 62.8136 49.0717 62.8516 49.0526 62.8938C49.0335 62.9361 49.0231 62.9818 49.0221 63.0282C49.0211 63.0745 49.0295 63.1206 49.0468 63.1637C49.064 63.2067 49.0898 63.2458 49.1226 63.2786C49.1554 63.3115 49.1945 63.3373 49.2375 63.3546C49.2805 63.372 49.3266 63.3804 49.3729 63.3795C49.4193 63.3786 49.465 63.3683 49.5073 63.3492C49.5496 63.3302 49.5876 63.3028 49.619 63.2687L51.6564 61.2299C51.6936 61.1991 51.7238 61.1607 51.7452 61.1173C51.7665 61.074 51.7785 61.0266 51.7803 60.9783C51.7821 60.93 51.7738 60.8818 51.7557 60.837C51.7377 60.7922 51.7104 60.7516 51.6757 60.718L51.6743 60.7166L49.619 58.66C49.587 58.6269 49.5486 58.6006 49.5061 58.5826C49.4637 58.5647 49.4181 58.5554 49.372 58.5554ZM52.061 63.3719C51.9697 63.3719 51.8822 63.4082 51.8177 63.4727C51.7532 63.5372 51.717 63.6247 51.717 63.7159V64.3318C51.5037 64.3978 51.2986 64.4811 51.1004 64.5843L50.667 64.1529C50.6025 64.0886 50.5151 64.0525 50.4241 64.0525C50.333 64.0525 50.2457 64.0886 50.1812 64.1529L49.1195 65.2125C49.0874 65.2445 49.062 65.2824 49.0447 65.3242C49.0273 65.366 49.0184 65.4108 49.0184 65.4561C49.0184 65.5013 49.0273 65.5461 49.0447 65.5879C49.062 65.6297 49.0874 65.6677 49.1195 65.6997L49.553 66.1331C49.4498 66.332 49.3631 66.537 49.297 66.7503H48.6839C48.5927 66.7503 48.5052 66.7866 48.4407 66.8511C48.3762 66.9156 48.3399 67.0031 48.3399 67.0944V68.5957C48.3399 68.687 48.3762 68.7745 48.4407 68.839C48.5052 68.9035 48.5927 68.9398 48.6839 68.9398H49.2984C49.3644 69.1531 49.4484 69.3595 49.5523 69.5577L49.1188 69.9912C49.0545 70.0556 49.0184 70.143 49.0184 70.234C49.0184 70.3251 49.0545 70.4124 49.1188 70.4769L50.1812 71.5373C50.2457 71.6018 50.3332 71.638 50.4244 71.638C50.5156 71.638 50.6031 71.6018 50.6676 71.5373L51.1011 71.1045C51.2993 71.2077 51.5043 71.2923 51.717 71.359V71.9728C51.717 72.064 51.7532 72.1516 51.8177 72.2161C51.8822 72.2806 51.9697 72.3168 52.061 72.3168H53.5637C53.655 72.3168 53.7425 72.2806 53.807 72.2161C53.8715 72.1516 53.9078 72.064 53.9078 71.9728V71.3584C54.1211 71.2923 54.3261 71.209 54.5243 71.1058L54.9578 71.5373C55.0223 71.6015 55.1096 71.6376 55.2007 71.6376C55.2917 71.6376 55.3791 71.6015 55.4436 71.5373L56.5052 70.4776C56.5373 70.4457 56.5627 70.4077 56.58 70.3659C56.5974 70.3241 56.6063 70.2793 56.6063 70.234C56.6063 70.1888 56.5974 70.144 56.58 70.1022C56.5627 70.0604 56.5373 70.0224 56.5052 69.9905L56.0718 69.557C56.175 69.3581 56.2617 69.1531 56.3277 68.9398H56.9408C57.032 68.9398 57.1195 68.9035 57.1841 68.839C57.2486 68.7745 57.2848 68.687 57.2848 68.5957V67.0944C57.2848 67.0031 57.2486 66.9156 57.1841 66.8511C57.1195 66.7866 57.032 66.7503 56.9408 66.7503H56.3263C56.2605 66.5372 56.1755 66.3303 56.0724 66.1325L56.5059 65.699C56.5702 65.6345 56.6063 65.5471 56.6063 65.4561C56.6063 65.365 56.5702 65.2777 56.5059 65.2132L55.4436 64.1529C55.379 64.0884 55.2915 64.0521 55.2003 64.0521C55.1091 64.0521 55.0216 64.0884 54.9571 64.1529L54.5236 64.5857C54.3264 64.4824 54.1203 64.3972 53.9078 64.3311V63.7159C53.9078 63.6247 53.8715 63.5372 53.807 63.4727C53.7425 63.4082 53.655 63.3719 53.5637 63.3719H52.061ZM52.405 64.06H53.2197V64.5547C53.2196 64.6326 53.2459 64.7083 53.2944 64.7693C53.3429 64.8303 53.4107 64.873 53.4867 64.8905C53.8197 64.9662 54.1362 65.0976 54.4252 65.2786C54.4912 65.3199 54.5692 65.3377 54.6466 65.3289C54.7239 65.3202 54.7961 65.2854 54.8511 65.2304L55.2007 64.8822L55.7759 65.4561L55.4277 65.8042C55.373 65.8592 55.3385 65.9311 55.3298 66.0081C55.321 66.0852 55.3386 66.163 55.3796 66.2288C55.5598 66.5185 55.6899 66.837 55.7649 67.1701C55.7821 67.2463 55.8247 67.3144 55.8857 67.3631C55.9467 67.4119 56.0225 67.4385 56.1007 67.4384H56.5968V68.2517H56.102C56.0241 68.2516 55.9484 68.278 55.8874 68.3265C55.8264 68.375 55.7837 68.4427 55.7663 68.5187C55.6906 68.8517 55.5598 69.1696 55.3782 69.4586C55.3368 69.5246 55.3191 69.6026 55.3278 69.68C55.3366 69.7573 55.3713 69.8294 55.4263 69.8845L55.7759 70.234L55.2007 70.8079L54.8525 70.4611C54.7975 70.4064 54.7257 70.3719 54.6486 70.3631C54.5715 70.3544 54.4938 70.3719 54.428 70.4129C54.1383 70.5932 53.8197 70.7233 53.4867 70.7983C53.411 70.8157 53.3434 70.8582 53.2949 70.9189C53.2464 70.9796 53.2199 71.055 53.2197 71.1327V71.6288H52.405V71.134C52.4048 71.0563 52.3783 70.981 52.3299 70.9203C52.2814 70.8596 52.2138 70.817 52.1381 70.7996C51.8056 70.7238 51.4882 70.5924 51.1995 70.4109C51.1336 70.3695 51.0555 70.3518 50.9782 70.3605C50.9008 70.3693 50.8287 70.404 50.7736 70.459L50.4241 70.8079L49.8488 70.234L50.197 69.8859C50.2522 69.8308 50.287 69.7585 50.2958 69.681C50.3045 69.6035 50.2867 69.5253 50.2452 69.4593C50.0648 69.1701 49.9346 68.8526 49.8599 68.5201C49.8427 68.4439 49.8001 68.3758 49.739 68.327C49.678 68.2782 49.6022 68.2517 49.5241 68.2517H49.028V67.4384H49.5227C49.6007 67.4385 49.6765 67.412 49.7375 67.3634C49.7985 67.3148 49.8412 67.2468 49.8585 67.1708C49.9342 66.8384 50.0656 66.5205 50.2465 66.2315C50.2879 66.1656 50.3056 66.0875 50.2969 66.0102C50.2882 65.9328 50.2534 65.8607 50.1984 65.8056L49.8488 65.4561L50.4241 64.8822L50.7722 65.229C50.8272 65.2837 50.8991 65.3182 50.9761 65.327C51.0532 65.3357 51.1309 65.3182 51.1968 65.2772C51.4865 65.0969 51.805 64.9655 52.1381 64.8905C52.2136 64.8731 52.281 64.8308 52.3294 64.7704C52.3779 64.7099 52.4045 64.6349 52.405 64.5575V64.06ZM43.9535 65.2503C43.8622 65.2503 43.7747 65.2866 43.7102 65.3511C43.6457 65.4156 43.6094 65.5031 43.6094 65.5944V65.9467C43.5103 65.9811 43.4133 66.0196 43.319 66.065L43.0707 65.8173C43.0061 65.7528 42.9186 65.7166 42.8274 65.7166C42.7362 65.7166 42.6487 65.7528 42.5842 65.8173L41.8548 66.5474C41.7903 66.6119 41.7541 66.6994 41.7541 66.7906C41.7541 66.8818 41.7903 66.9693 41.8548 67.0338L42.1025 67.2829C42.0567 67.377 42.0165 67.4737 41.9821 67.5726H41.6312C41.54 67.5726 41.4525 67.6088 41.3879 67.6734C41.3234 67.7379 41.2872 67.8254 41.2872 67.9166V68.9487C41.2872 69.04 41.3234 69.1275 41.3879 69.192C41.4525 69.2565 41.54 69.2928 41.6312 69.2928H41.9835C42.0179 69.3925 42.0557 69.4889 42.1019 69.5831L41.8541 69.8322C41.7896 69.8967 41.7534 69.9842 41.7534 70.0754C41.7534 70.1667 41.7896 70.2542 41.8541 70.3187L42.5835 71.048C42.6155 71.0801 42.6534 71.1055 42.6952 71.1228C42.737 71.1402 42.7818 71.1491 42.8271 71.1491C42.8723 71.1491 42.9171 71.1402 42.9589 71.1228C43.0007 71.1055 43.0387 71.0801 43.0707 71.048L43.319 70.7996C43.414 70.8457 43.5103 70.885 43.6094 70.9194V71.271C43.6094 71.3622 43.6457 71.4497 43.7102 71.5142C43.7747 71.5788 43.8622 71.615 43.9535 71.615H44.9856C45.0768 71.615 45.1643 71.5788 45.2288 71.5142C45.2933 71.4497 45.3296 71.3622 45.3296 71.271V70.9194C45.4286 70.8851 45.5256 70.8451 45.62 70.7996L45.8684 71.048C45.9329 71.1125 46.0204 71.1488 46.1116 71.1488C46.2028 71.1488 46.2903 71.1125 46.3548 71.048L47.0842 70.3187C47.1164 70.2867 47.142 70.2486 47.1595 70.2067C47.1769 70.1648 47.1859 70.1198 47.1859 70.0744C47.1859 70.029 47.1769 69.984 47.1595 69.9421C47.142 69.9002 47.1164 69.8621 47.0842 69.8301L46.8372 69.5831C46.8833 69.4889 46.9225 69.3925 46.9569 69.2928H47.3078C47.399 69.2928 47.4865 69.2565 47.5511 69.192C47.6156 69.1275 47.6518 69.04 47.6518 68.9487V67.9166C47.6518 67.8254 47.6156 67.7379 47.5511 67.6734C47.4865 67.6088 47.399 67.5726 47.3078 67.5726H46.9555C46.9213 67.4738 46.8814 67.377 46.8358 67.2829L47.0849 67.0338C47.1494 66.9693 47.1856 66.8818 47.1856 66.7906C47.1856 66.6994 47.1494 66.6119 47.0849 66.5474L46.3555 65.818C46.3235 65.786 46.2856 65.7605 46.2438 65.7432C46.202 65.7259 46.1572 65.7169 46.1119 65.7169C46.0667 65.7169 46.0219 65.7259 45.9801 65.7432C45.9383 65.7605 45.9003 65.786 45.8684 65.818L45.62 66.0664C45.5257 66.0202 45.4287 65.9798 45.3296 65.9453V65.5944C45.3296 65.5031 45.2933 65.4156 45.2288 65.3511C45.1643 65.2866 45.0768 65.2503 44.9856 65.2503H43.9535ZM44.2975 65.9384H44.6415V66.171C44.6416 66.2489 44.6681 66.3245 44.7167 66.3853C44.7654 66.4462 44.8332 66.4888 44.9092 66.5061C45.1259 66.5556 45.3337 66.6416 45.5216 66.76C45.5876 66.8015 45.6658 66.8194 45.7433 66.8106C45.8208 66.8018 45.8931 66.767 45.9482 66.7118L46.1119 66.5474L46.3548 66.7909L46.1911 66.9533C46.1359 67.0084 46.101 67.0807 46.0923 67.1582C46.0835 67.2357 46.1014 67.3139 46.1429 67.3799C46.2599 67.5685 46.3466 67.7749 46.3954 67.9923C46.4125 68.0683 46.455 68.1362 46.5157 68.1849C46.5764 68.2337 46.6519 68.2604 46.7298 68.2607H46.9638V68.6047H46.7312C46.6531 68.6047 46.5773 68.6312 46.5162 68.68C46.4552 68.7287 46.4126 68.7968 46.3954 68.873C46.3462 69.0895 46.2608 69.296 46.1429 69.484C46.1014 69.5501 46.0835 69.6283 46.0923 69.7058C46.101 69.7833 46.1359 69.8555 46.1911 69.9107L46.3548 70.0758L46.1119 70.3166L45.9489 70.1542C45.8938 70.0992 45.8217 70.0645 45.7443 70.0557C45.667 70.047 45.5889 70.0647 45.5229 70.1061C45.3344 70.2236 45.1274 70.3085 44.9106 70.3572C44.8341 70.3743 44.7658 70.4169 44.7169 70.4781C44.6679 70.5393 44.6414 70.6153 44.6415 70.6937V70.9276H44.2975V70.6951C44.2977 70.6169 44.2713 70.541 44.2227 70.4799C44.174 70.4187 44.106 70.3759 44.0298 70.3586C43.813 70.3094 43.606 70.224 43.4174 70.1061C43.3516 70.0644 43.2735 70.0463 43.196 70.0548C43.1184 70.0633 43.0461 70.0979 42.9908 70.1529L42.8271 70.3173L42.5842 70.0737L42.7479 69.91C42.8027 69.855 42.8372 69.7831 42.8459 69.7061C42.8547 69.629 42.8371 69.5513 42.7961 69.4854C42.6781 69.2969 42.5928 69.0899 42.5436 68.873C42.5266 68.7969 42.4842 68.7289 42.4235 68.68C42.3627 68.6311 42.2872 68.6043 42.2092 68.604H41.9752V68.26H42.2078C42.2859 68.26 42.3617 68.2335 42.4228 68.1847C42.4838 68.1359 42.5264 68.0678 42.5436 67.9916C42.5931 67.7756 42.6785 67.5678 42.7961 67.3792C42.8375 67.3133 42.8552 67.2352 42.8465 67.1579C42.8377 67.0805 42.803 67.0084 42.7479 66.9533L42.5842 66.7896L42.8271 66.546L42.9902 66.7091C43.0452 66.7641 43.1173 66.7988 43.1947 66.8076C43.2721 66.8163 43.3501 66.7986 43.4161 66.7572C43.6046 66.6396 43.8117 66.5549 44.0285 66.5061C44.1047 66.4891 44.1728 66.4466 44.2217 66.3857C44.2706 66.3248 44.2973 66.2491 44.2975 66.171V65.9384ZM52.8124 66.1256C52.3569 66.1274 51.9207 66.309 51.5985 66.6309C51.2763 66.9528 51.0944 67.389 51.0922 67.8444C51.094 68.3 51.2758 68.7365 51.598 69.0587C51.9202 69.3809 52.3567 69.5627 52.8124 69.5646C53.268 69.5627 53.7045 69.3809 54.0267 69.0587C54.3489 68.7365 54.5307 68.3 54.5325 67.8444C54.5304 67.389 54.3484 66.9528 54.0262 66.6309C53.7041 66.309 53.2678 66.1274 52.8124 66.1256ZM52.8124 66.8136C53.3807 66.8136 53.8445 67.276 53.8445 67.8444C53.8445 68.4127 53.3807 68.8765 52.8124 68.8765C52.244 68.8765 51.7803 68.4127 51.7803 67.8444C51.7803 67.276 52.244 66.8136 52.8124 66.8136ZM44.4695 67.3001C43.8482 67.3001 43.3369 67.8113 43.3369 68.4327C43.3369 69.0547 43.8482 69.5646 44.4695 69.5646C45.0908 69.5646 45.6021 69.054 45.6021 68.4327C45.6021 67.8113 45.0908 67.3001 44.4695 67.3001ZM44.4695 67.9882C44.5873 67.9882 44.7003 68.035 44.7836 68.1183C44.8669 68.2016 44.9137 68.3145 44.9137 68.4323C44.9137 68.5501 44.8669 68.6631 44.7836 68.7464C44.7003 68.8297 44.5873 68.8765 44.4695 68.8765C44.3517 68.8765 44.2387 68.8297 44.1554 68.7464C44.0721 68.6631 44.0254 68.5501 44.0254 68.4323C44.0254 68.3145 44.0721 68.2016 44.1554 68.1183C44.2387 68.035 44.3517 67.9882 44.4695 67.9882Z" fill="url(#paint13_linear_16_211)"/>
<path d="M31.6928 44.0919C31.7841 44.0919 31.8716 44.1281 31.9361 44.1927C32.0006 44.2572 32.0368 44.3447 32.0368 44.4359V59.5735C32.0368 59.6647 32.0006 59.7522 31.9361 59.8168C31.8716 59.8813 31.7841 59.9175 31.6928 59.9175H28.7685V59.2295H31.3488V47.5322H14.8351V54.5753C14.8282 54.6084 14.8117 54.6373 14.8075 54.671C14.617 54.5148 14.3809 54.437 14.147 54.4315V44.4359C14.147 44.3447 14.1832 44.2572 14.2478 44.1927C14.3123 44.1281 14.3998 44.0919 14.491 44.0919H31.6928ZM31.3488 44.78H14.8351V46.8442H31.3488V44.78ZM30.3167 45.468C30.4079 45.468 30.4954 45.5043 30.5599 45.5688C30.6245 45.6333 30.6607 45.7208 30.6607 45.8121C30.6607 45.9033 30.6245 45.9908 30.5599 46.0553C30.4954 46.1199 30.4079 46.1561 30.3167 46.1561C30.2254 46.1561 30.1379 46.1199 30.0734 46.0553C30.0089 45.9908 29.9726 45.9033 29.9726 45.8121C29.9726 45.7208 30.0089 45.6333 30.0734 45.5688C30.1379 45.5043 30.2254 45.468 30.3167 45.468ZM28.9405 45.468C29.0318 45.468 29.1193 45.5043 29.1838 45.5688C29.2483 45.6333 29.2846 45.7208 29.2846 45.8121C29.2846 45.9033 29.2483 45.9908 29.1838 46.0553C29.1193 46.1199 29.0318 46.1561 28.9405 46.1561C28.8493 46.1561 28.7618 46.1199 28.6973 46.0553C28.6327 45.9908 28.5965 45.9033 28.5965 45.8121C28.5965 45.7208 28.6327 45.6333 28.6973 45.5688C28.7618 45.5043 28.8493 45.468 28.9405 45.468ZM27.5644 45.468C27.6556 45.468 27.7431 45.5043 27.8077 45.5688C27.8722 45.6333 27.9084 45.7208 27.9084 45.8121C27.9084 45.9033 27.8722 45.9908 27.8077 46.0553C27.7431 46.1199 27.6556 46.1561 27.5644 46.1561C27.4731 46.1561 27.3856 46.1199 27.3211 46.0553C27.2566 45.9908 27.2204 45.9033 27.2204 45.8121C27.2204 45.7208 27.2566 45.6333 27.3211 45.5688C27.3856 45.5043 27.4731 45.468 27.5644 45.468ZM20.5853 47.965V47.9664C20.6439 47.9672 20.7013 47.9828 20.7521 48.012C20.8029 48.0411 20.8454 48.0828 20.8756 48.1329L21.4928 49.1609C21.5115 49.1687 21.5295 49.1782 21.5465 49.1891L25.472 51.7522C25.5196 51.7833 25.5589 51.8257 25.5861 51.8756C25.6134 51.9256 25.6278 51.9815 25.6282 52.0384L25.6357 55.0824C26.1676 55.0446 26.4993 54.9448 26.7002 54.8272C26.9548 54.6779 27.0525 54.5058 27.1736 54.2609C27.2947 54.0166 27.424 53.6884 27.7502 53.4331C28.0756 53.1779 28.5538 53.0368 29.2846 53.0368C29.3758 53.0368 29.4633 53.0731 29.5278 53.1376C29.5924 53.2021 29.6286 53.2896 29.6286 53.3808C29.6286 53.4721 29.5924 53.5596 29.5278 53.6241C29.4633 53.6886 29.3758 53.7249 29.2846 53.7249C28.6392 53.7249 28.3419 53.8432 28.1747 53.9747C28.0068 54.1068 27.9229 54.2946 27.7894 54.5664C27.6545 54.8375 27.455 55.1815 27.0483 55.4196C26.672 55.6398 26.1401 55.763 25.3605 55.7808C25.3383 55.7858 25.3158 55.7886 25.2931 55.7891H21.8782C21.8208 55.7892 21.7643 55.775 21.7138 55.7477C21.6634 55.7204 21.6205 55.681 21.5892 55.6329L19.0282 51.7088C19.0166 51.691 19.0067 51.6721 18.9986 51.6524L17.9706 51.0359C17.9259 51.009 17.888 50.9722 17.8596 50.9285C17.8313 50.8847 17.8132 50.8351 17.8068 50.7833C17.8005 50.7315 17.806 50.679 17.8229 50.6296C17.8398 50.5803 17.8677 50.5355 17.9046 50.4985L20.3369 48.0641C20.3696 48.0319 20.4084 48.0065 20.4511 47.9895C20.4937 47.9724 20.5394 47.9641 20.5853 47.965ZM20.513 48.8644L18.7034 50.674L19.3103 51.0387L20.877 49.4726V49.4712L20.513 48.8644ZM21.4055 49.9171L19.7562 51.5664L22.0639 55.101H24.4536L23.2116 53.8591C22.8284 54.0393 22.3543 53.976 22.0399 53.6616C21.8478 53.4674 21.74 53.2054 21.74 52.9322C21.74 52.6591 21.8478 52.397 22.0399 52.2029C22.234 52.0108 22.4961 51.903 22.7692 51.903C23.0423 51.903 23.3044 52.0108 23.4986 52.2029C23.6477 52.3539 23.7468 52.5471 23.7825 52.7563C23.8182 52.9655 23.7887 53.1807 23.6981 53.3726L24.9463 54.6214L24.9394 52.227L21.4055 49.9178V49.9171ZM22.7692 52.5854C22.7239 52.5858 22.6792 52.5951 22.6375 52.6128C22.5958 52.6305 22.558 52.6563 22.5263 52.6887C22.3887 52.8263 22.3887 53.0382 22.5263 53.1751C22.6639 53.3127 22.8752 53.3127 23.0128 53.1751C23.1504 53.0375 23.1504 52.8263 23.0128 52.6887C22.981 52.6562 22.9431 52.6304 22.9013 52.6127C22.8595 52.595 22.8146 52.5857 22.7692 52.5854ZM17.3059 54.413C17.3972 54.413 17.4847 54.4492 17.5492 54.5137C17.6137 54.5782 17.65 54.6657 17.65 54.757V55.3728C17.8633 55.4389 18.0697 55.5221 18.2672 55.6253L18.7007 55.1939C18.7651 55.1296 18.8525 55.0935 18.9435 55.0935C19.0346 55.0935 19.1219 55.1296 19.1864 55.1939L20.2481 56.2535C20.2802 56.2855 20.3056 56.3235 20.3229 56.3653C20.3403 56.4071 20.3492 56.4519 20.3492 56.4971C20.3492 56.5424 20.3403 56.5872 20.3229 56.629C20.3056 56.6708 20.2802 56.7087 20.2481 56.7407L19.8146 57.1742C19.9179 57.373 20.0045 57.5781 20.0706 57.7914H20.6837C20.7749 57.7914 20.8624 57.8276 20.9269 57.8922C20.9915 57.9567 21.0277 58.0442 21.0277 58.1354V59.6368C21.0277 59.728 20.9915 59.8155 20.9269 59.8801C20.8624 59.9446 20.7749 59.9808 20.6837 59.9808H20.0692C20.0032 60.1941 19.9192 60.4006 19.8153 60.5987L20.2488 61.0322C20.3131 61.0967 20.3492 61.184 20.3492 61.2751C20.3492 61.3661 20.3131 61.4535 20.2488 61.518L19.1864 62.5783C19.1219 62.6428 19.0344 62.679 18.9432 62.679C18.852 62.679 18.7645 62.6428 18.7 62.5783L18.2665 62.1455C18.0683 62.2487 17.8633 62.3333 17.6507 62.4001V63.0138C17.6507 63.1051 17.6144 63.1926 17.5499 63.2571C17.4854 63.3216 17.3979 63.3579 17.3066 63.3579H15.8039C15.7126 63.3579 15.6251 63.3216 15.5606 63.2571C15.4961 63.1926 15.4598 63.1051 15.4598 63.0138V62.3994C15.2465 62.3333 15.0415 62.2501 14.8433 62.1469L14.4098 62.5783C14.3454 62.6426 14.258 62.6787 14.167 62.6787C14.0759 62.6787 13.9886 62.6426 13.9241 62.5783L12.8624 61.5187C12.8303 61.4867 12.8049 61.4487 12.7876 61.4069C12.7702 61.3652 12.7613 61.3203 12.7613 61.2751C12.7613 61.2298 12.7702 61.185 12.7876 61.1432C12.8049 61.1014 12.8303 61.0635 12.8624 61.0315L13.2959 60.598C13.1926 60.3992 13.1059 60.1941 13.0399 59.9808H12.4268C12.3356 59.9808 12.2481 59.9446 12.1836 59.8801C12.119 59.8155 12.0828 59.728 12.0828 59.6368V58.1354C12.0828 58.0442 12.119 57.9567 12.1836 57.8922C12.2481 57.8276 12.3356 57.7914 12.4268 57.7914H13.0413C13.1071 57.5782 13.1921 57.3714 13.2952 57.1735L12.8617 56.74C12.7974 56.6755 12.7613 56.5882 12.7613 56.4971C12.7613 56.4061 12.7974 56.3187 12.8617 56.2542L13.9241 55.1939C13.9886 55.1294 14.0761 55.0932 14.1673 55.0932C14.2585 55.0932 14.346 55.1294 14.4105 55.1939L14.844 55.6267C15.0412 55.5235 15.2473 55.4383 15.4598 55.3721V54.757C15.4598 54.6657 15.4961 54.5782 15.5606 54.5137C15.6251 54.4492 15.7126 54.413 15.8039 54.413H17.3059ZM16.9619 55.101H16.1479V55.5958C16.148 55.6737 16.1217 55.7493 16.0732 55.8103C16.0247 55.8713 15.9569 55.9141 15.8809 55.9315C15.5479 56.0072 15.2314 56.1386 14.9424 56.3196C14.8764 56.361 14.7984 56.3787 14.721 56.37C14.6437 56.3612 14.5716 56.3265 14.5165 56.2714L14.167 55.9233L13.5917 56.4971L13.9399 56.8453C13.9946 56.9003 14.0291 56.9721 14.0379 57.0492C14.0466 57.1262 14.0291 57.204 13.9881 57.2698C13.8078 57.5595 13.6777 57.8781 13.6027 58.2111C13.5855 58.2873 13.5429 58.3554 13.4819 58.4042C13.4209 58.4529 13.3451 58.4795 13.267 58.4795H12.7709V59.2928H13.2656C13.3435 59.2926 13.4192 59.319 13.4802 59.3675C13.5412 59.416 13.5839 59.4838 13.6014 59.5597C13.677 59.8928 13.8078 60.2106 13.9894 60.4996C14.0308 60.5656 14.0485 60.6436 14.0398 60.721C14.031 60.7984 13.9963 60.8705 13.9413 60.9256L13.5917 61.2751L14.167 61.8489L14.5151 61.5022C14.5701 61.4474 14.6419 61.4129 14.719 61.4042C14.7961 61.3954 14.8738 61.413 14.9397 61.454C15.2293 61.6343 15.5479 61.7643 15.8809 61.8393C15.9567 61.8567 16.0243 61.8992 16.0727 61.96C16.1212 62.0207 16.1477 62.096 16.1479 62.1737V62.6698H16.9626V62.1751C16.9628 62.0974 16.9893 62.0221 17.0378 61.9613C17.0862 61.9006 17.1538 61.8581 17.2296 61.8407C17.5621 61.7649 17.8794 61.6334 18.1681 61.4519C18.2341 61.4106 18.3121 61.3928 18.3895 61.4016C18.4668 61.4103 18.5389 61.4451 18.594 61.5001L18.9435 61.8489L19.5188 61.2751L19.1706 60.9269C19.1154 60.8718 19.0806 60.7996 19.0718 60.7221C19.0631 60.6445 19.0809 60.5664 19.1224 60.5003C19.3028 60.2112 19.4331 59.8936 19.5078 59.5611C19.5249 59.4849 19.5676 59.4168 19.6286 59.368C19.6896 59.3193 19.7654 59.2927 19.8435 59.2928H20.3396V58.4795H19.8449C19.7669 58.4795 19.6912 58.4531 19.6301 58.4044C19.5691 58.3558 19.5265 58.2879 19.5091 58.2118C19.4334 57.8795 19.302 57.5616 19.1211 57.2726C19.0797 57.2066 19.062 57.1286 19.0707 57.0512C19.0795 56.9738 19.1142 56.9017 19.1692 56.8467L19.5188 56.4971L18.9435 55.9233L18.5954 56.2701C18.5404 56.3248 18.4686 56.3593 18.3915 56.368C18.3144 56.3768 18.2367 56.3592 18.1708 56.3182C17.8812 56.138 17.5626 56.0065 17.2296 55.9315C17.1541 55.9142 17.0866 55.8719 17.0382 55.8114C16.9897 55.751 16.9631 55.676 16.9626 55.5985L16.9619 55.101ZM25.4142 56.2914C25.5054 56.2914 25.5929 56.3276 25.6574 56.3922C25.722 56.4567 25.7582 56.5442 25.7582 56.6354V56.9877C25.8573 57.0221 25.9543 57.0607 26.0486 57.1061L26.297 56.8584C26.3615 56.7939 26.449 56.7576 26.5402 56.7576C26.6314 56.7576 26.7189 56.7939 26.7834 56.8584L27.5128 57.5884C27.5773 57.6529 27.6135 57.7404 27.6135 57.8316C27.6135 57.9229 27.5773 58.0104 27.5128 58.0749L27.2651 58.324C27.3109 58.4181 27.3511 58.5148 27.3855 58.6136H27.7364C27.8276 58.6136 27.9152 58.6499 27.9797 58.7144C28.0442 58.7789 28.0804 58.8664 28.0804 58.9577V59.9898C28.0804 60.081 28.0442 60.1685 27.9797 60.233C27.9152 60.2976 27.8276 60.3338 27.7364 60.3338H27.3841C27.3497 60.4336 27.3119 60.5299 27.2658 60.6242L27.5135 60.8733C27.578 60.9378 27.6142 61.0253 27.6142 61.1165C27.6142 61.2077 27.578 61.2952 27.5135 61.3597L26.7841 62.0891C26.7522 62.1211 26.7142 62.1465 26.6724 62.1639C26.6306 62.1812 26.5858 62.1902 26.5405 62.1902C26.4953 62.1902 26.4505 62.1812 26.4087 62.1639C26.3669 62.1465 26.3289 62.1211 26.297 62.0891L26.0486 61.8407C25.9536 61.8868 25.8573 61.926 25.7582 61.9604V62.312C25.7582 62.4033 25.722 62.4908 25.6574 62.5553C25.5929 62.6198 25.5054 62.656 25.4142 62.656H24.3821C24.2908 62.656 24.2033 62.6198 24.1388 62.5553C24.0743 62.4908 24.038 62.4033 24.038 62.312V61.9604C23.939 61.9261 23.8421 61.8862 23.7477 61.8407L23.4993 62.0891C23.4347 62.1536 23.3473 62.1898 23.256 62.1898C23.1648 62.1898 23.0773 62.1536 23.0128 62.0891L22.2834 61.3597C22.2512 61.3277 22.2256 61.2897 22.2081 61.2478C22.1907 61.2058 22.1817 61.1609 22.1817 61.1155C22.1817 61.07 22.1907 61.0251 22.2081 60.9832C22.2256 60.9412 22.2512 60.9032 22.2834 60.8712L22.5305 60.6242C22.4844 60.5299 22.4451 60.4336 22.4107 60.3338H22.0598C21.9686 60.3338 21.8811 60.2976 21.8165 60.233C21.752 60.1685 21.7158 60.081 21.7158 59.9898V58.9577C21.7158 58.8664 21.752 58.7789 21.8165 58.7144C21.8811 58.6499 21.9686 58.6136 22.0598 58.6136H22.4121C22.4463 58.5148 22.4863 58.4181 22.5318 58.324L22.2828 58.0749C22.2183 58.0104 22.182 57.9229 22.182 57.8316C22.182 57.7404 22.2183 57.6529 22.2828 57.5884L23.0121 56.8591C23.0441 56.827 23.082 56.8016 23.1238 56.7842C23.1656 56.7669 23.2104 56.758 23.2557 56.758C23.3009 56.758 23.3457 56.7669 23.3875 56.7842C23.4293 56.8016 23.4673 56.827 23.4993 56.8591L23.7477 57.1074C23.8419 57.0613 23.9389 57.0208 24.038 56.9863V56.6354C24.038 56.5442 24.0743 56.4567 24.1388 56.3922C24.2033 56.3276 24.2908 56.2914 24.3821 56.2914H25.4142ZM25.0701 56.9795H24.7261V57.212C24.726 57.2899 24.6995 57.3655 24.6509 57.4264C24.6022 57.4873 24.5344 57.5298 24.4584 57.5471C24.2417 57.5967 24.0339 57.6827 23.8461 57.801C23.78 57.8425 23.7018 57.8604 23.6243 57.8516C23.5468 57.8429 23.4746 57.8081 23.4194 57.7529L23.2557 57.5884L23.0128 57.832L23.1766 57.9944C23.2318 58.0495 23.2666 58.1217 23.2753 58.1992C23.2841 58.2767 23.2662 58.3549 23.2247 58.421C23.1077 58.6095 23.0211 58.8159 22.9722 59.0334C22.9551 59.1093 22.9127 59.1772 22.8519 59.226C22.7912 59.2747 22.7157 59.3014 22.6378 59.3017H22.4039V59.6457H22.6364C22.7145 59.6457 22.7903 59.6722 22.8514 59.721C22.9124 59.7698 22.955 59.8379 22.9722 59.9141C23.0214 60.1305 23.1068 60.3371 23.2247 60.5251C23.2662 60.5911 23.2841 60.6693 23.2753 60.7468C23.2666 60.8243 23.2318 60.8966 23.1766 60.9517L23.0128 61.1168L23.2557 61.3577L23.4188 61.1953C23.4738 61.1402 23.5459 61.1055 23.6233 61.0968C23.7007 61.088 23.7787 61.1058 23.8447 61.1471C24.0332 61.2647 24.2403 61.3496 24.4571 61.3983C24.5335 61.4153 24.6018 61.458 24.6508 61.5192C24.6997 61.5803 24.7263 61.6564 24.7261 61.7347V61.9687H25.0701V61.7361C25.0699 61.658 25.0963 61.5821 25.1449 61.5209C25.1936 61.4598 25.2616 61.417 25.3378 61.3996C25.5546 61.3504 25.7617 61.265 25.9502 61.1471C26.0161 61.1054 26.0942 61.0873 26.1717 61.0958C26.2492 61.1043 26.3215 61.1389 26.3768 61.1939L26.5405 61.3583L26.7834 61.1148L26.6197 60.951C26.565 60.896 26.5304 60.8242 26.5217 60.7471C26.5129 60.6701 26.5305 60.5923 26.5715 60.5265C26.6895 60.338 26.7749 60.131 26.824 59.9141C26.841 59.838 26.8834 59.7699 26.9441 59.721C27.0049 59.6721 27.0804 59.6454 27.1584 59.6451H27.3924V59.301H27.1598C27.0817 59.3011 27.0059 59.2745 26.9448 59.2257C26.8838 59.177 26.8412 59.1089 26.824 59.0327C26.7745 58.8166 26.6892 58.6088 26.5715 58.4203C26.5302 58.3543 26.5124 58.2763 26.5211 58.1989C26.5299 58.1215 26.5646 58.0494 26.6197 57.9944L26.7834 57.8306L26.5405 57.587L26.3775 57.7501C26.3224 57.8051 26.2503 57.8399 26.1729 57.8486C26.0956 57.8574 26.0175 57.8396 25.9515 57.7983C25.763 57.6806 25.5559 57.596 25.3392 57.5471C25.2629 57.5301 25.1948 57.4876 25.1459 57.4267C25.097 57.3658 25.0703 57.2901 25.0701 57.212V56.9795ZM16.5552 57.1666C17.0107 57.1684 17.4469 57.3501 17.7691 57.672C18.0913 57.9939 18.2733 58.43 18.2754 58.8854C18.2736 59.3411 18.0918 59.7776 17.7696 60.0998C17.4474 60.422 17.0109 60.6038 16.5552 60.6056C16.0996 60.6038 15.6631 60.422 15.3409 60.0998C15.0187 59.7776 14.8369 59.3411 14.8351 58.8854C14.8372 58.43 15.0192 57.9939 15.3414 57.672C15.6635 57.3501 16.0998 57.1684 16.5552 57.1666ZM16.5552 57.8547C15.9869 57.8547 15.5231 58.3171 15.5231 58.8854C15.5231 59.4538 15.9869 59.9175 16.5552 59.9175C17.1236 59.9175 17.5874 59.4538 17.5874 58.8854C17.5874 58.3171 17.1236 57.8547 16.5552 57.8547ZM24.8981 58.3412C25.5194 58.3412 26.0307 58.8524 26.0307 59.4737C26.0307 60.0957 25.5194 60.6056 24.8981 60.6056C24.2768 60.6056 23.7655 60.095 23.7655 59.4737C23.7655 58.8524 24.2768 58.3412 24.8981 58.3412ZM24.8981 59.0292C24.7803 59.0292 24.6673 59.076 24.5841 59.1593C24.5008 59.2426 24.454 59.3556 24.454 59.4734C24.454 59.5912 24.5008 59.7041 24.5841 59.7874C24.6673 59.8707 24.7803 59.9175 24.8981 59.9175C25.0159 59.9175 25.1289 59.8707 25.2122 59.7874C25.2955 59.7041 25.3423 59.5912 25.3423 59.4734C25.3423 59.3556 25.2955 59.2426 25.2122 59.1593C25.1289 59.076 25.0159 59.0292 24.8981 59.0292Z" fill="url(#paint14_linear_16_211)"/>
<defs>
<linearGradient id="paint0_linear_16_211" x1="37.1423" y1="43.7238" x2="79.3584" y2="43.7238" gradientUnits="userSpaceOnUse">
<stop stop-color="#779DFF"/>
<stop offset="1" stop-color="#FF956E"/>
</linearGradient>
<linearGradient id="paint1_linear_16_211" x1="33.779" y1="63.904" x2="82.0259" y2="63.904" gradientUnits="userSpaceOnUse">
<stop stop-color="#779DFF"/>
<stop offset="1" stop-color="#FF956E"/>
</linearGradient>
<linearGradient id="paint2_linear_16_211" x1="84.2295" y1="33.6337" x2="92.2707" y2="33.6337" gradientUnits="userSpaceOnUse">
<stop stop-color="#779DFF"/>
<stop offset="1" stop-color="#FF956E"/>
</linearGradient>
<linearGradient id="paint3_linear_16_211" x1="28.1734" y1="33.6337" x2="36.2145" y2="33.6337" gradientUnits="userSpaceOnUse">
<stop stop-color="#779DFF"/>
<stop offset="1" stop-color="#FF956E"/>
</linearGradient>
<linearGradient id="paint4_linear_16_211" x1="37.1423" y1="28.0281" x2="64.2812" y2="28.0281" gradientUnits="userSpaceOnUse">
<stop stop-color="#779DFF"/>
<stop offset="1" stop-color="#FF956E"/>
</linearGradient>
<linearGradient id="paint5_linear_16_211" x1="37.1423" y1="7.84787" x2="79.3584" y2="7.84787" gradientUnits="userSpaceOnUse">
<stop stop-color="#779DFF"/>
<stop offset="1" stop-color="#FF956E"/>
</linearGradient>
<linearGradient id="paint6_linear_16_211" x1="56.2014" y1="3.36337" x2="64.2426" y2="3.36337" gradientUnits="userSpaceOnUse">
<stop stop-color="#779DFF"/>
<stop offset="1" stop-color="#FF956E"/>
</linearGradient>
<linearGradient id="paint7_linear_16_211" x1="76.3817" y1="28.0281" x2="83.4177" y2="28.0281" gradientUnits="userSpaceOnUse">
<stop stop-color="#779DFF"/>
<stop offset="1" stop-color="#FF956E"/>
</linearGradient>
<linearGradient id="paint8_linear_16_211" x1="13.4637" y1="29.5384" x2="15.4914" y2="29.5384" gradientUnits="userSpaceOnUse">
<stop stop-color="#779DFF"/>
<stop offset="1" stop-color="#FF956E"/>
</linearGradient>
<linearGradient id="paint9_linear_16_211" x1="20.4077" y1="37.541" x2="21.5753" y2="37.541" gradientUnits="userSpaceOnUse">
<stop stop-color="#779DFF"/>
<stop offset="1" stop-color="#FF956E"/>
</linearGradient>
<linearGradient id="paint10_linear_16_211" x1="60.7675" y1="42.9484" x2="62.7565" y2="42.9484" gradientUnits="userSpaceOnUse">
<stop stop-color="#779DFF"/>
<stop offset="1" stop-color="#FF956E"/>
</linearGradient>
<linearGradient id="paint11_linear_16_211" x1="45.3702" y1="37.494" x2="47.0862" y2="37.494" gradientUnits="userSpaceOnUse">
<stop stop-color="#779DFF"/>
<stop offset="1" stop-color="#FF956E"/>
</linearGradient>
<linearGradient id="paint12_linear_16_211" x1="20.2273" y1="81.9639" x2="46.5144" y2="81.9639" gradientUnits="userSpaceOnUse">
<stop stop-color="#779DFF"/>
<stop offset="1" stop-color="#FF956E"/>
</linearGradient>
<linearGradient id="paint13_linear_16_211" x1="37.3308" y1="62.6838" x2="55.2206" y2="62.6838" gradientUnits="userSpaceOnUse">
<stop stop-color="#779DFF"/>
<stop offset="1" stop-color="#FF956E"/>
</linearGradient>
<linearGradient id="paint14_linear_16_211" x1="32.0368" y1="53.7249" x2="14.147" y2="53.7249" gradientUnits="userSpaceOnUse">
<stop stop-color="#779DFF"/>
<stop offset="1" stop-color="#FF956E"/>
</linearGradient>
</defs>
</svg>
