<svg width="89" height="88" viewBox="0 0 89 88" fill="none" xmlns="http://www.w3.org/2000/svg">
<path fill-rule="evenodd" clip-rule="evenodd" d="M85.0829 32.3698C86.071 35.9474 86.6406 39.7023 86.6406 43.5938C86.6406 66.7572 67.9509 85.5562 44.8292 85.7331C54.2313 85.6603 62.8733 82.4702 69.8541 77.1958C66.541 79.6923 62.8559 81.7179 58.8859 83.1595C56.9853 83.8482 54.9654 82.4329 54.9712 80.4101C54.9858 76.8442 55.0003 72.6301 55.0003 69.6861C55.0003 65.7394 53.6518 63.1586 52.1405 61.8508C61.5277 60.8046 71.3799 57.227 71.3799 40.9752C71.3799 36.3543 69.7495 32.5791 67.0467 29.6205C67.4826 28.5481 68.927 24.2498 66.6282 18.4227C66.6282 18.4227 63.0971 17.2864 55.0526 22.7589C51.6872 21.8201 48.0805 21.3522 44.5029 21.3348C40.9195 21.3522 37.3158 21.8201 33.9532 22.7589C25.9029 17.2893 22.3631 18.4256 22.3631 18.4256C20.073 24.2498 21.5174 28.551 21.9533 29.6234C19.2563 32.582 17.6143 36.3572 17.6143 40.9781C17.6143 57.1892 27.4519 60.8191 36.8101 61.8857C35.604 62.9436 34.5141 64.8094 34.1334 67.5413C31.7299 68.6253 25.6297 70.494 21.8661 64.0276C21.8661 64.0276 19.6399 59.9676 15.4143 59.6682C15.4143 59.6682 11.2961 59.6159 15.1236 62.2403C15.1236 62.2403 17.8875 63.5423 19.7998 68.4277C19.7998 68.4277 22.273 76.6582 33.9968 74.1007C34.0039 75.3372 34.013 77.18 34.0224 79.0956L34.0288 80.4043C34.0375 82.4213 32.0293 83.8599 30.1344 83.1711C25.9639 81.6569 22.0986 79.5063 18.6576 76.8354C25.5851 82.2263 34.2195 85.533 43.6292 85.7255C26.2426 85.3726 11.4706 74.4737 5.37025 59.1771C4.38213 55.5995 3.8125 51.8446 3.8125 47.9531C3.8125 24.6799 22.6799 5.8125 45.9531 5.8125C63.7161 5.8125 78.8809 16.8185 85.0829 32.3698Z" fill="url(#paint0_linear_21_288)"/>
<path d="M31.1109 84.7928C30.6139 84.7928 30.117 84.7085 29.6403 84.5341C11.6448 78.0067 0.11575 60.7726 0.949843 41.6466C0.984718 40.8474 1.62409 40.2371 2.464 40.2574C3.26612 40.2923 3.88806 40.9723 3.85319 41.7716C3.07431 59.6217 13.8362 75.7078 30.6314 81.7964C31.0702 81.9592 31.5556 81.8923 31.9479 81.6133C32.3519 81.3285 32.5815 80.8868 32.5786 80.4014L32.5553 75.8299C21.1425 77.4603 18.4397 68.9276 18.4106 68.8375C16.8063 64.7542 14.5104 63.5481 14.4872 63.5365C13.4932 62.8709 11.5925 61.5718 12.1331 59.8688C12.6184 58.3343 14.6092 58.2326 15.4346 58.2064C20.4798 58.561 23.0373 63.1267 23.142 63.3214C25.9203 68.0964 30.1577 67.5238 32.8343 66.5008C33.0959 65.1872 33.5289 63.9927 34.1102 62.9668C25.7634 61.5544 16.1612 57.2328 16.1612 40.9723C16.1612 36.5229 17.5532 32.6023 20.2997 29.3008C19.6952 27.342 18.9395 23.1628 21.0088 17.8938C21.1686 17.4869 21.5028 17.176 21.9184 17.0423C22.3369 16.9057 26.1993 15.8972 34.2119 21.1866C37.464 20.3409 40.9224 19.902 44.4971 19.8846C48.0834 19.902 51.5389 20.3409 54.7939 21.1866C62.8036 15.8972 66.6514 16.9057 67.0758 17.0423C67.4913 17.176 67.8227 17.4869 67.9825 17.8909C70.0605 23.1599 69.3077 27.3391 68.7003 29.3037C71.4438 32.5965 72.833 36.5171 72.833 40.9752C72.833 57.2357 63.2192 61.5457 54.8579 62.9436C55.8867 64.7542 56.4534 67.0879 56.4534 69.6861C56.4534 72.6301 56.4389 76.85 56.4243 80.416C56.4243 80.8984 56.6481 81.3314 57.0463 81.6133C57.4444 81.8923 57.9356 81.9592 58.3919 81.7964C74.4198 75.9723 85.1875 60.6186 85.1875 43.5938C85.1875 32.3669 80.7119 21.9131 72.5889 14.1564C64.4688 6.4054 53.8087 2.42383 42.5499 2.95277C41.7507 3.0138 41.0706 2.36861 41.0299 1.5694C40.9922 0.767271 41.6112 0.0872085 42.4133 0.0494273C54.4801 -0.50276 65.8958 3.75199 74.5942 12.0551C83.3013 20.3641 88.0938 31.5648 88.0938 43.5938C88.0938 61.8363 76.5559 78.2857 59.3858 84.5254C58.0402 85.0107 56.5435 84.8131 55.3752 83.9877C54.2098 83.1653 53.5152 81.8255 53.521 80.4043C53.5355 76.8413 53.5501 72.6272 53.5501 69.6861C53.5501 65.4459 51.9022 63.5626 51.1931 62.9523C50.7572 62.5745 50.5828 61.9729 50.7543 61.4236C50.9257 60.8714 51.4082 60.4733 51.9807 60.4093C60.8564 59.4212 69.9297 56.3377 69.9297 40.9781C69.9297 36.9675 68.5986 33.4742 65.9772 30.6057C65.5994 30.1901 65.4918 29.5973 65.704 29.0771C66.108 28.0889 67.2269 24.6101 65.5819 19.7829C64.3526 19.8177 61.2138 20.3321 55.8751 23.9679C55.5205 24.2091 55.0788 24.2846 54.6661 24.1655C51.5157 23.2878 48.002 22.8141 44.4971 22.7937C40.9573 22.8112 37.5366 23.2733 34.3427 24.1655C33.9329 24.2876 33.4911 24.2091 33.1337 23.9679C27.8152 20.3496 24.6765 19.8206 23.4093 19.7887C21.7731 24.616 22.8949 28.086 23.296 29.0771C23.5053 29.5973 23.4006 30.1901 23.0228 30.6028C20.3956 33.4829 19.0645 36.9733 19.0645 40.9781C19.0645 56.329 28.1175 59.4328 36.9728 60.4413C37.5424 60.5052 38.022 60.9005 38.1934 61.4498C38.3649 61.9961 38.1963 62.5977 37.7662 62.9756C37.1152 63.5481 35.9614 64.9286 35.5691 67.7418C35.5023 68.2359 35.1826 68.6602 34.7263 68.8636C32.5466 69.8459 25.0892 72.4586 20.6077 64.7571C20.5757 64.7019 19.0819 62.0804 16.4111 61.3103C17.3585 61.9438 19.5411 63.7864 21.1512 67.8929C21.2762 68.2795 23.4994 74.8941 33.6858 72.6766C34.116 72.5865 34.5606 72.6853 34.9036 72.9614C35.2465 73.2346 35.447 73.6502 35.4499 74.0862L35.4819 80.3927C35.4877 81.8197 34.7931 83.1682 33.619 83.9936C32.875 84.5196 31.9973 84.7928 31.1109 84.7928Z" fill="#282828"/>
<path d="M43.7357 87.1875C19.7213 87.1875 0.90625 68.0382 0.90625 43.5938C0.90625 33.047 4.50419 22.9274 11.0345 15.1009C11.546 14.4848 12.4673 14.4005 13.0805 14.9178C13.6967 15.4322 13.7809 16.3477 13.2665 16.9638C7.16922 24.2672 3.8125 33.7241 3.8125 43.5938C3.8125 66.4107 21.3488 84.2812 43.7357 84.2812C66.5933 84.2812 85.1875 66.03 85.1875 43.5938C85.1875 21.1575 66.5933 2.90625 43.7357 2.90625C36.6415 2.90625 29.7508 4.70813 23.8046 8.11425C23.1129 8.50659 22.2207 8.26828 21.8225 7.57369C21.4244 6.87619 21.6656 5.98978 22.3602 5.58872C28.7452 1.93266 36.1387 0 43.7357 0C68.1947 0 88.0938 19.5562 88.0938 43.5938C88.0938 67.6313 68.1947 87.1875 43.7357 87.1875Z" fill="#282828"/>
<path d="M19.9218 10.323C19.9218 11.1222 19.2679 11.7761 18.4687 11.7761C17.6695 11.7761 17.0156 11.1222 17.0156 10.323C17.0156 9.52378 17.6695 8.86987 18.4687 8.86987C19.2679 8.86987 19.9218 9.52087 19.9218 10.323Z" fill="#282828"/>
<defs>
<linearGradient id="paint0_linear_21_288" x1="3.8125" y1="45.7728" x2="78.0722" y2="45.7728" gradientUnits="userSpaceOnUse">
<stop stop-color="#779DFF"/>
<stop offset="1" stop-color="#FF956E"/>
</linearGradient>
</defs>
</svg>
