<svg width="83" height="82" viewBox="0 0 83 82" fill="none" xmlns="http://www.w3.org/2000/svg">
<mask id="path-1-inside-1_21_302" fill="white">
<path d="M16.5157 17.9383C17.7827 17.9383 19.0213 18.314 20.0748 19.018C21.1283 19.7219 21.9494 20.7224 22.4343 21.893C22.9191 23.0636 23.046 24.3516 22.7988 25.5943C22.5516 26.837 21.9415 27.9785 21.0456 28.8744C20.1496 29.7704 19.0082 30.3805 17.7655 30.6277C16.5228 30.8749 15.2347 30.748 14.0641 30.2631C12.8935 29.7783 11.893 28.9572 11.1891 27.9037C10.4851 26.8502 10.1094 25.6116 10.1094 24.3445C10.1099 22.6457 10.785 21.0165 11.9863 19.8152C13.1876 18.6139 14.8168 17.9388 16.5157 17.9383ZM78.6563 3.84454C79.4165 3.84454 80.1596 4.06997 80.7917 4.49232C81.4238 4.91468 81.9165 5.51499 82.2074 6.21734C82.4983 6.9197 82.5745 7.69254 82.4261 8.43816C82.2778 9.18377 81.9117 9.86866 81.3742 10.4062C80.8366 10.9438 80.1517 11.3099 79.4061 11.4582C78.6605 11.6065 77.8877 11.5304 77.1853 11.2394C76.483 10.9485 75.8826 10.4559 75.4603 9.82375C75.0379 9.19165 74.8125 8.4485 74.8125 7.68828C74.8133 6.66911 75.2185 5.6919 75.9392 4.97124C76.6599 4.25057 77.6371 3.84535 78.6563 3.84454ZM78.6563 8.96953C78.9097 8.96953 79.1574 8.89439 79.3681 8.7536C79.5788 8.61281 79.743 8.41271 79.84 8.17859C79.9369 7.94448 79.9623 7.68686 79.9129 7.43832C79.8634 7.18978 79.7414 6.96149 79.5622 6.7823C79.383 6.60312 79.1547 6.48109 78.9062 6.43165C78.6577 6.38222 78.4001 6.40759 78.1659 6.50456C77.9318 6.60154 77.7317 6.76576 77.5909 6.97646C77.4501 7.18716 77.375 7.43487 77.375 7.68828C77.376 8.02778 77.5113 8.35309 77.7514 8.59316C77.9914 8.83322 78.3168 8.96853 78.6563 8.96953ZM68.4063 0.000793457C69.1665 0.000793457 69.9096 0.226225 70.5417 0.648581C71.1738 1.07094 71.6665 1.67125 71.9574 2.3736C72.2483 3.07595 72.3245 3.8488 72.1762 4.59441C72.0278 5.34003 71.6618 6.02492 71.1242 6.56247C70.5866 7.10003 69.9018 7.46611 69.1561 7.61442C68.4105 7.76274 67.6377 7.68662 66.9353 7.39569C66.233 7.10477 65.6327 6.61211 65.2103 5.98001C64.7879 5.34791 64.5625 4.60476 64.5625 3.84454C64.5633 2.82536 64.9685 1.84816 65.6892 1.12749C66.4099 0.406825 67.3871 0.00160104 68.4063 0.000793457ZM68.4063 5.12579C68.6597 5.12579 68.9074 5.05064 69.1181 4.90986C69.3288 4.76907 69.493 4.56897 69.59 4.33485C69.687 4.10073 69.7123 3.84312 69.6629 3.59458C69.6135 3.34604 69.4914 3.11774 69.3122 2.93856C69.1331 2.75937 68.9048 2.63735 68.6562 2.58791C68.4077 2.53847 68.1501 2.56384 67.9159 2.66082C67.6818 2.75779 67.4817 2.92201 67.3409 3.13271C67.2002 3.34341 67.125 3.59113 67.125 3.84454C67.126 4.18404 67.2613 4.50935 67.5014 4.74941C67.7414 4.98948 68.0668 5.12479 68.4063 5.12579ZM29.3282 62.782C30.5952 62.782 31.8338 63.1577 32.8873 63.8616C33.9408 64.5656 34.7619 65.5661 35.2468 66.7367C35.7316 67.9072 35.8585 69.1953 35.6113 70.438C35.3641 71.6807 34.754 72.8222 33.8581 73.7181C32.9621 74.614 31.8207 75.2242 30.578 75.4714C29.3353 75.7186 28.0472 75.5917 26.8766 75.1068C25.706 74.6219 24.7055 73.8008 24.0016 72.7473C23.2976 71.6938 22.9219 70.4553 22.9219 69.1882C22.9224 67.4893 23.5975 65.8602 24.7988 64.6589C26.0001 63.4576 27.6293 62.7825 29.3282 62.782ZM67.7656 10.2508C68.6526 10.2508 69.5196 10.5138 70.257 11.0065C70.9945 11.4993 71.5692 12.1996 71.9087 13.0191C72.2481 13.8385 72.3369 14.7401 72.1638 15.61C71.9908 16.4799 71.5637 17.2789 70.9366 17.9061C70.3094 18.5332 69.5104 18.9603 68.6405 19.1333C67.7706 19.3064 66.869 19.2176 66.0495 18.8782C65.2301 18.5387 64.5298 17.964 64.037 17.2265C63.5443 16.4891 63.2813 15.6221 63.2813 14.7351C63.2826 13.5462 63.7554 12.4064 64.5961 11.5657C65.4368 10.725 66.5767 10.2521 67.7656 10.2508ZM67.7656 16.657C68.1457 16.657 68.5173 16.5443 68.8334 16.3331C69.1494 16.1219 69.3958 15.8218 69.5412 15.4706C69.6867 15.1194 69.7247 14.733 69.6506 14.3602C69.5764 13.9874 69.3934 13.645 69.1246 13.3762C68.8558 13.1074 68.5134 12.9244 68.1406 12.8502C67.7678 12.776 67.3813 12.8141 67.0302 12.9596C66.679 13.105 66.3788 13.3514 66.1677 13.6674C65.9565 13.9835 65.8438 14.355 65.8438 14.7351C65.8453 15.2444 66.0482 15.7324 66.4083 16.0925C66.7684 16.4526 67.2564 16.6555 67.7656 16.657ZM22.1347 63.8545C21.6201 64.5464 21.2082 65.3091 20.912 66.1188C17.7957 64.8042 15.0269 62.7845 12.8234 60.2186C10.62 57.6526 9.04184 54.6105 8.21321 51.3313C7.38458 48.0522 7.32805 44.6255 8.04805 41.3209C8.76805 38.0162 10.245 34.9236 12.3626 32.2864C13.1791 32.7139 14.057 33.0119 14.9651 33.1697C12.9185 35.4798 11.4556 38.2468 10.6988 41.2388C9.94209 44.2308 9.91362 47.3606 10.6158 50.3659C11.318 53.3712 12.7304 56.1644 14.7346 58.5113C16.7388 60.8582 19.2764 62.6904 22.1347 63.8545ZM59.4375 21.782H81.2187C81.5586 21.782 81.8844 21.917 82.1247 22.1573C82.365 22.3976 82.5 22.7235 82.5 23.0633C82.5 23.4031 82.365 23.729 82.1247 23.9693C81.8844 24.2096 81.5586 24.3445 81.2187 24.3445H80.5781V26.907H77.375C77.0352 26.907 76.7093 27.042 76.469 27.2823C76.2287 27.5225 76.0938 27.8484 76.0938 28.1882C76.0938 28.5281 76.2287 28.8539 76.469 29.0942C76.7093 29.3345 77.0352 29.4695 77.375 29.4695H80.5781V30.7507H77.375C77.0352 30.7507 76.7093 30.8857 76.469 31.126C76.2287 31.3663 76.0938 31.6922 76.0938 32.032C76.0938 32.3718 76.2287 32.6977 76.469 32.938C76.7093 33.1783 77.0352 33.3132 77.375 33.3132H80.5781V34.5945H77.375C77.0352 34.5945 76.7093 34.7295 76.469 34.9698C76.2287 35.21 76.0938 35.5359 76.0938 35.8757C76.0938 36.2155 76.2287 36.5414 76.469 36.7817C76.7093 37.022 77.0352 37.157 77.375 37.157H80.5781V38.4382H77.375C77.0352 38.4382 76.7093 38.5732 76.469 38.8135C76.2287 39.0538 76.0938 39.3797 76.0938 39.7195C76.0938 40.0593 76.2287 40.3852 76.469 40.6255C76.7093 40.8657 77.0352 41.0007 77.375 41.0007H80.5781V42.282H77.375C77.0352 42.282 76.7093 42.417 76.469 42.6572C76.2287 42.8975 76.0938 43.2234 76.0938 43.5632C76.0938 43.903 76.2287 44.2289 76.469 44.4692C76.7093 44.7095 77.0352 44.8445 77.375 44.8445H80.5781V46.1257H77.375C77.0352 46.1257 76.7093 46.2607 76.469 46.501C76.2287 46.7413 76.0938 47.0672 76.0938 47.407C76.0938 47.7468 76.2287 48.0727 76.469 48.313C76.7093 48.5532 77.0352 48.6882 77.375 48.6882H80.5781V49.9695H77.375C77.0352 49.9695 76.7093 50.1045 76.469 50.3447C76.2287 50.585 76.0938 50.9109 76.0938 51.2507C76.0938 51.5905 76.2287 51.9164 76.469 52.1567C76.7093 52.397 77.0352 52.532 77.375 52.532H80.5781V53.8132H77.375C77.0352 53.8132 76.7093 53.9482 76.469 54.1885C76.2287 54.4288 76.0938 54.7547 76.0938 55.0945C76.0938 55.4343 76.2287 55.7602 76.469 56.0004C76.7093 56.2407 77.0352 56.3757 77.375 56.3757H80.5781V57.657H77.375C77.0352 57.657 76.7093 57.7919 76.469 58.0322C76.2287 58.2725 76.0938 58.5984 76.0938 58.9382C76.0938 59.278 76.2287 59.6039 76.469 59.8442C76.7093 60.0845 77.0352 60.2194 77.375 60.2194H80.5781V61.5007H77.375C77.0352 61.5007 76.7093 61.6357 76.469 61.876C76.2287 62.1162 76.0938 62.4421 76.0938 62.7819C76.0938 63.1218 76.2287 63.4476 76.469 63.6879C76.7093 63.9282 77.0352 64.0632 77.375 64.0632H80.5781V65.3444H77.375C77.0352 65.3444 76.7093 65.4794 76.469 65.7197C76.2287 65.96 76.0938 66.2859 76.0938 66.6257C76.0938 66.9655 76.2287 67.2914 76.469 67.5317C76.7093 67.7719 77.0352 67.9069 77.375 67.9069H80.5781V69.1882H77.375C77.0352 69.1882 76.7093 69.3232 76.469 69.5635C76.2287 69.8037 76.0938 70.1296 76.0938 70.4694C76.0938 70.8092 76.2287 71.1351 76.469 71.3754C76.7093 71.6157 77.0352 71.7507 77.375 71.7507H80.5781V73.0319H77.375C77.0352 73.0319 76.7093 73.1669 76.469 73.4072C76.2287 73.6475 76.0938 73.9734 76.0938 74.3132C76.0938 74.653 76.2287 74.9789 76.469 75.2192C76.7093 75.4594 77.0352 75.5944 77.375 75.5944H80.5781V75.6301C80.5664 77.3289 79.8813 78.9536 78.6732 80.1479C77.465 81.3422 75.8325 82.0085 74.1337 82.0007H66.5225C64.8238 82.0085 63.1912 81.3422 61.9831 80.1479C60.775 78.9536 60.0899 77.3289 60.0781 75.6301V75.5944H63.2813C63.6211 75.5944 63.947 75.4594 64.1872 75.2192C64.4275 74.9789 64.5625 74.653 64.5625 74.3132C64.5625 73.9734 64.4275 73.6475 64.1872 73.4072C63.947 73.1669 63.6211 73.0319 63.2813 73.0319H60.0781V71.7507H63.2813C63.6211 71.7507 63.947 71.6157 64.1872 71.3754C64.4275 71.1351 64.5625 70.8092 64.5625 70.4694C64.5625 70.1296 64.4275 69.8037 64.1872 69.5635C63.947 69.3232 63.6211 69.1882 63.2813 69.1882H60.0781V67.9069H63.2813C63.6211 67.9069 63.947 67.7719 64.1872 67.5317C64.4275 67.2914 64.5625 66.9655 64.5625 66.6257C64.5625 66.2859 64.4275 65.96 64.1872 65.7197C63.947 65.4794 63.6211 65.3444 63.2813 65.3444H60.0781V64.0632H63.2813C63.6211 64.0632 63.947 63.9282 64.1872 63.6879C64.4275 63.4476 64.5625 63.1218 64.5625 62.7819C64.5625 62.4421 64.4275 62.1162 64.1872 61.876C63.947 61.6357 63.6211 61.5007 63.2813 61.5007H60.0781V60.2194H63.2813C63.6211 60.2194 63.947 60.0845 64.1872 59.8442C64.4275 59.6039 64.5625 59.278 64.5625 58.9382C64.5625 58.5984 64.4275 58.2725 64.1872 58.0322C63.947 57.7919 63.6211 57.657 63.2813 57.657H60.0781V56.3757H63.2813C63.6211 56.3757 63.947 56.2407 64.1872 56.0004C64.4275 55.7602 64.5625 55.4343 64.5625 55.0945C64.5625 54.7547 64.4275 54.4288 64.1872 54.1885C63.947 53.9482 63.6211 53.8132 63.2813 53.8132H60.0781V52.532H63.2813C63.6211 52.532 63.947 52.397 64.1872 52.1567C64.4275 51.9164 64.5625 51.5905 64.5625 51.2507C64.5625 50.9109 64.4275 50.585 64.1872 50.3447C63.947 50.1045 63.6211 49.9695 63.2813 49.9695H60.0781V48.6882H63.2813C63.6211 48.6882 63.947 48.5532 64.1872 48.313C64.4275 48.0727 64.5625 47.7468 64.5625 47.407C64.5625 47.0672 64.4275 46.7413 64.1872 46.501C63.947 46.2607 63.6211 46.1257 63.2813 46.1257H60.0781V44.8445H63.2813C63.6211 44.8445 63.947 44.7095 64.1872 44.4692C64.4275 44.2289 64.5625 43.903 64.5625 43.5632C64.5625 43.2234 64.4275 42.8975 64.1872 42.6572C63.947 42.417 63.6211 42.282 63.2813 42.282H60.0781V41.0007H63.2813C63.6211 41.0007 63.947 40.8657 64.1872 40.6255C64.4275 40.3852 64.5625 40.0593 64.5625 39.7195C64.5625 39.3797 64.4275 39.0538 64.1872 38.8135C63.947 38.5732 63.6211 38.4382 63.2813 38.4382H60.0781V37.157H63.2813C63.6211 37.157 63.947 37.022 64.1872 36.7817C64.4275 36.5414 64.5625 36.2155 64.5625 35.8757C64.5625 35.5359 64.4275 35.21 64.1872 34.9698C63.947 34.7295 63.6211 34.5945 63.2813 34.5945H60.0781V33.3132H63.2813C63.6211 33.3132 63.947 33.1783 64.1872 32.938C64.4275 32.6977 64.5625 32.3718 64.5625 32.032C64.5625 31.6922 64.4275 31.3663 64.1872 31.126C63.947 30.8857 63.6211 30.7507 63.2813 30.7507H60.0781V29.4695H63.2813C63.6211 29.4695 63.947 29.3345 64.1872 29.0942C64.4275 28.8539 64.5625 28.5281 64.5625 28.1882C64.5625 27.8484 64.4275 27.5225 64.1872 27.2823C63.947 27.042 63.6211 26.907 63.2813 26.907H60.0781V24.3445H59.4375C59.0977 24.3445 58.7718 24.2096 58.5315 23.9693C58.2913 23.729 58.1563 23.4031 58.1563 23.0633C58.1563 22.7235 58.2913 22.3976 58.5315 22.1573C58.7718 21.917 59.0977 21.782 59.4375 21.782ZM30.7888 37.9898L43.6589 24.6072L45.3822 22.8134C45.4721 22.7166 45.5784 22.6364 45.6961 22.5764C45.8093 22.5176 45.93 22.4745 46.0549 22.4483C46.1369 22.4302 46.2207 22.4216 46.3047 22.4226C46.637 22.4214 46.9566 22.5502 47.1952 22.7814C47.4395 23.0178 47.58 23.3414 47.586 23.6812C47.592 24.0211 47.463 24.3495 47.2272 24.5943L42.4866 29.5207L49.5783 36.5356C49.8527 36.7963 50.0726 37.109 50.2252 37.4554C50.3778 37.8018 50.46 38.175 50.4672 38.5535C50.4743 38.9319 50.4062 39.3081 50.2668 39.66C50.1274 40.0119 49.9195 40.3326 49.6552 40.6035L47.0094 43.3198C46.4677 43.8629 45.7367 44.1749 44.9698 44.1904C44.2029 44.206 43.4598 43.9238 42.8966 43.4031L35.8497 36.4267L31.2116 41.2506C31.15 41.3113 31.0836 41.367 31.013 41.4171C30.831 41.5394 30.6209 41.6135 30.4024 41.6325C30.184 41.6516 29.9642 41.6149 29.7638 41.526C29.7063 41.4999 29.6506 41.47 29.5972 41.4363C29.5257 41.3923 29.4592 41.3408 29.3986 41.2826C29.1544 41.0462 29.0138 40.7226 29.0078 40.3827C29.0018 40.0428 29.1308 39.7145 29.3666 39.4696L30.7888 37.9898Z"/>
</mask>
<path d="M16.5157 17.9383C17.7827 17.9383 19.0213 18.314 20.0748 19.018C21.1283 19.7219 21.9494 20.7224 22.4343 21.893C22.9191 23.0636 23.046 24.3516 22.7988 25.5943C22.5516 26.837 21.9415 27.9785 21.0456 28.8744C20.1496 29.7704 19.0082 30.3805 17.7655 30.6277C16.5228 30.8749 15.2347 30.748 14.0641 30.2631C12.8935 29.7783 11.893 28.9572 11.1891 27.9037C10.4851 26.8502 10.1094 25.6116 10.1094 24.3445C10.1099 22.6457 10.785 21.0165 11.9863 19.8152C13.1876 18.6139 14.8168 17.9388 16.5157 17.9383ZM78.6563 3.84454C79.4165 3.84454 80.1596 4.06997 80.7917 4.49232C81.4238 4.91468 81.9165 5.51499 82.2074 6.21734C82.4983 6.9197 82.5745 7.69254 82.4261 8.43816C82.2778 9.18377 81.9117 9.86866 81.3742 10.4062C80.8366 10.9438 80.1517 11.3099 79.4061 11.4582C78.6605 11.6065 77.8877 11.5304 77.1853 11.2394C76.483 10.9485 75.8826 10.4559 75.4603 9.82375C75.0379 9.19165 74.8125 8.4485 74.8125 7.68828C74.8133 6.66911 75.2185 5.6919 75.9392 4.97124C76.6599 4.25057 77.6371 3.84535 78.6563 3.84454ZM78.6563 8.96953C78.9097 8.96953 79.1574 8.89439 79.3681 8.7536C79.5788 8.61281 79.743 8.41271 79.84 8.17859C79.9369 7.94448 79.9623 7.68686 79.9129 7.43832C79.8634 7.18978 79.7414 6.96149 79.5622 6.7823C79.383 6.60312 79.1547 6.48109 78.9062 6.43165C78.6577 6.38222 78.4001 6.40759 78.1659 6.50456C77.9318 6.60154 77.7317 6.76576 77.5909 6.97646C77.4501 7.18716 77.375 7.43487 77.375 7.68828C77.376 8.02778 77.5113 8.35309 77.7514 8.59316C77.9914 8.83322 78.3168 8.96853 78.6563 8.96953ZM68.4063 0.000793457C69.1665 0.000793457 69.9096 0.226225 70.5417 0.648581C71.1738 1.07094 71.6665 1.67125 71.9574 2.3736C72.2483 3.07595 72.3245 3.8488 72.1762 4.59441C72.0278 5.34003 71.6618 6.02492 71.1242 6.56247C70.5866 7.10003 69.9018 7.46611 69.1561 7.61442C68.4105 7.76274 67.6377 7.68662 66.9353 7.39569C66.233 7.10477 65.6327 6.61211 65.2103 5.98001C64.7879 5.34791 64.5625 4.60476 64.5625 3.84454C64.5633 2.82536 64.9685 1.84816 65.6892 1.12749C66.4099 0.406825 67.3871 0.00160104 68.4063 0.000793457ZM68.4063 5.12579C68.6597 5.12579 68.9074 5.05064 69.1181 4.90986C69.3288 4.76907 69.493 4.56897 69.59 4.33485C69.687 4.10073 69.7123 3.84312 69.6629 3.59458C69.6135 3.34604 69.4914 3.11774 69.3122 2.93856C69.1331 2.75937 68.9048 2.63735 68.6562 2.58791C68.4077 2.53847 68.1501 2.56384 67.9159 2.66082C67.6818 2.75779 67.4817 2.92201 67.3409 3.13271C67.2002 3.34341 67.125 3.59113 67.125 3.84454C67.126 4.18404 67.2613 4.50935 67.5014 4.74941C67.7414 4.98948 68.0668 5.12479 68.4063 5.12579ZM29.3282 62.782C30.5952 62.782 31.8338 63.1577 32.8873 63.8616C33.9408 64.5656 34.7619 65.5661 35.2468 66.7367C35.7316 67.9072 35.8585 69.1953 35.6113 70.438C35.3641 71.6807 34.754 72.8222 33.8581 73.7181C32.9621 74.614 31.8207 75.2242 30.578 75.4714C29.3353 75.7186 28.0472 75.5917 26.8766 75.1068C25.706 74.6219 24.7055 73.8008 24.0016 72.7473C23.2976 71.6938 22.9219 70.4553 22.9219 69.1882C22.9224 67.4893 23.5975 65.8602 24.7988 64.6589C26.0001 63.4576 27.6293 62.7825 29.3282 62.782ZM67.7656 10.2508C68.6526 10.2508 69.5196 10.5138 70.257 11.0065C70.9945 11.4993 71.5692 12.1996 71.9087 13.0191C72.2481 13.8385 72.3369 14.7401 72.1638 15.61C71.9908 16.4799 71.5637 17.2789 70.9366 17.9061C70.3094 18.5332 69.5104 18.9603 68.6405 19.1333C67.7706 19.3064 66.869 19.2176 66.0495 18.8782C65.2301 18.5387 64.5298 17.964 64.037 17.2265C63.5443 16.4891 63.2813 15.6221 63.2813 14.7351C63.2826 13.5462 63.7554 12.4064 64.5961 11.5657C65.4368 10.725 66.5767 10.2521 67.7656 10.2508ZM67.7656 16.657C68.1457 16.657 68.5173 16.5443 68.8334 16.3331C69.1494 16.1219 69.3958 15.8218 69.5412 15.4706C69.6867 15.1194 69.7247 14.733 69.6506 14.3602C69.5764 13.9874 69.3934 13.645 69.1246 13.3762C68.8558 13.1074 68.5134 12.9244 68.1406 12.8502C67.7678 12.776 67.3813 12.8141 67.0302 12.9596C66.679 13.105 66.3788 13.3514 66.1677 13.6674C65.9565 13.9835 65.8438 14.355 65.8438 14.7351C65.8453 15.2444 66.0482 15.7324 66.4083 16.0925C66.7684 16.4526 67.2564 16.6555 67.7656 16.657ZM22.1347 63.8545C21.6201 64.5464 21.2082 65.3091 20.912 66.1188C17.7957 64.8042 15.0269 62.7845 12.8234 60.2186C10.62 57.6526 9.04184 54.6105 8.21321 51.3313C7.38458 48.0522 7.32805 44.6255 8.04805 41.3209C8.76805 38.0162 10.245 34.9236 12.3626 32.2864C13.1791 32.7139 14.057 33.0119 14.9651 33.1697C12.9185 35.4798 11.4556 38.2468 10.6988 41.2388C9.94209 44.2308 9.91362 47.3606 10.6158 50.3659C11.318 53.3712 12.7304 56.1644 14.7346 58.5113C16.7388 60.8582 19.2764 62.6904 22.1347 63.8545ZM59.4375 21.782H81.2187C81.5586 21.782 81.8844 21.917 82.1247 22.1573C82.365 22.3976 82.5 22.7235 82.5 23.0633C82.5 23.4031 82.365 23.729 82.1247 23.9693C81.8844 24.2096 81.5586 24.3445 81.2187 24.3445H80.5781V26.907H77.375C77.0352 26.907 76.7093 27.042 76.469 27.2823C76.2287 27.5225 76.0938 27.8484 76.0938 28.1882C76.0938 28.5281 76.2287 28.8539 76.469 29.0942C76.7093 29.3345 77.0352 29.4695 77.375 29.4695H80.5781V30.7507H77.375C77.0352 30.7507 76.7093 30.8857 76.469 31.126C76.2287 31.3663 76.0938 31.6922 76.0938 32.032C76.0938 32.3718 76.2287 32.6977 76.469 32.938C76.7093 33.1783 77.0352 33.3132 77.375 33.3132H80.5781V34.5945H77.375C77.0352 34.5945 76.7093 34.7295 76.469 34.9698C76.2287 35.21 76.0938 35.5359 76.0938 35.8757C76.0938 36.2155 76.2287 36.5414 76.469 36.7817C76.7093 37.022 77.0352 37.157 77.375 37.157H80.5781V38.4382H77.375C77.0352 38.4382 76.7093 38.5732 76.469 38.8135C76.2287 39.0538 76.0938 39.3797 76.0938 39.7195C76.0938 40.0593 76.2287 40.3852 76.469 40.6255C76.7093 40.8657 77.0352 41.0007 77.375 41.0007H80.5781V42.282H77.375C77.0352 42.282 76.7093 42.417 76.469 42.6572C76.2287 42.8975 76.0938 43.2234 76.0938 43.5632C76.0938 43.903 76.2287 44.2289 76.469 44.4692C76.7093 44.7095 77.0352 44.8445 77.375 44.8445H80.5781V46.1257H77.375C77.0352 46.1257 76.7093 46.2607 76.469 46.501C76.2287 46.7413 76.0938 47.0672 76.0938 47.407C76.0938 47.7468 76.2287 48.0727 76.469 48.313C76.7093 48.5532 77.0352 48.6882 77.375 48.6882H80.5781V49.9695H77.375C77.0352 49.9695 76.7093 50.1045 76.469 50.3447C76.2287 50.585 76.0938 50.9109 76.0938 51.2507C76.0938 51.5905 76.2287 51.9164 76.469 52.1567C76.7093 52.397 77.0352 52.532 77.375 52.532H80.5781V53.8132H77.375C77.0352 53.8132 76.7093 53.9482 76.469 54.1885C76.2287 54.4288 76.0938 54.7547 76.0938 55.0945C76.0938 55.4343 76.2287 55.7602 76.469 56.0004C76.7093 56.2407 77.0352 56.3757 77.375 56.3757H80.5781V57.657H77.375C77.0352 57.657 76.7093 57.7919 76.469 58.0322C76.2287 58.2725 76.0938 58.5984 76.0938 58.9382C76.0938 59.278 76.2287 59.6039 76.469 59.8442C76.7093 60.0845 77.0352 60.2194 77.375 60.2194H80.5781V61.5007H77.375C77.0352 61.5007 76.7093 61.6357 76.469 61.876C76.2287 62.1162 76.0938 62.4421 76.0938 62.7819C76.0938 63.1218 76.2287 63.4476 76.469 63.6879C76.7093 63.9282 77.0352 64.0632 77.375 64.0632H80.5781V65.3444H77.375C77.0352 65.3444 76.7093 65.4794 76.469 65.7197C76.2287 65.96 76.0938 66.2859 76.0938 66.6257C76.0938 66.9655 76.2287 67.2914 76.469 67.5317C76.7093 67.7719 77.0352 67.9069 77.375 67.9069H80.5781V69.1882H77.375C77.0352 69.1882 76.7093 69.3232 76.469 69.5635C76.2287 69.8037 76.0938 70.1296 76.0938 70.4694C76.0938 70.8092 76.2287 71.1351 76.469 71.3754C76.7093 71.6157 77.0352 71.7507 77.375 71.7507H80.5781V73.0319H77.375C77.0352 73.0319 76.7093 73.1669 76.469 73.4072C76.2287 73.6475 76.0938 73.9734 76.0938 74.3132C76.0938 74.653 76.2287 74.9789 76.469 75.2192C76.7093 75.4594 77.0352 75.5944 77.375 75.5944H80.5781V75.6301C80.5664 77.3289 79.8813 78.9536 78.6732 80.1479C77.465 81.3422 75.8325 82.0085 74.1337 82.0007H66.5225C64.8238 82.0085 63.1912 81.3422 61.9831 80.1479C60.775 78.9536 60.0899 77.3289 60.0781 75.6301V75.5944H63.2813C63.6211 75.5944 63.947 75.4594 64.1872 75.2192C64.4275 74.9789 64.5625 74.653 64.5625 74.3132C64.5625 73.9734 64.4275 73.6475 64.1872 73.4072C63.947 73.1669 63.6211 73.0319 63.2813 73.0319H60.0781V71.7507H63.2813C63.6211 71.7507 63.947 71.6157 64.1872 71.3754C64.4275 71.1351 64.5625 70.8092 64.5625 70.4694C64.5625 70.1296 64.4275 69.8037 64.1872 69.5635C63.947 69.3232 63.6211 69.1882 63.2813 69.1882H60.0781V67.9069H63.2813C63.6211 67.9069 63.947 67.7719 64.1872 67.5317C64.4275 67.2914 64.5625 66.9655 64.5625 66.6257C64.5625 66.2859 64.4275 65.96 64.1872 65.7197C63.947 65.4794 63.6211 65.3444 63.2813 65.3444H60.0781V64.0632H63.2813C63.6211 64.0632 63.947 63.9282 64.1872 63.6879C64.4275 63.4476 64.5625 63.1218 64.5625 62.7819C64.5625 62.4421 64.4275 62.1162 64.1872 61.876C63.947 61.6357 63.6211 61.5007 63.2813 61.5007H60.0781V60.2194H63.2813C63.6211 60.2194 63.947 60.0845 64.1872 59.8442C64.4275 59.6039 64.5625 59.278 64.5625 58.9382C64.5625 58.5984 64.4275 58.2725 64.1872 58.0322C63.947 57.7919 63.6211 57.657 63.2813 57.657H60.0781V56.3757H63.2813C63.6211 56.3757 63.947 56.2407 64.1872 56.0004C64.4275 55.7602 64.5625 55.4343 64.5625 55.0945C64.5625 54.7547 64.4275 54.4288 64.1872 54.1885C63.947 53.9482 63.6211 53.8132 63.2813 53.8132H60.0781V52.532H63.2813C63.6211 52.532 63.947 52.397 64.1872 52.1567C64.4275 51.9164 64.5625 51.5905 64.5625 51.2507C64.5625 50.9109 64.4275 50.585 64.1872 50.3447C63.947 50.1045 63.6211 49.9695 63.2813 49.9695H60.0781V48.6882H63.2813C63.6211 48.6882 63.947 48.5532 64.1872 48.313C64.4275 48.0727 64.5625 47.7468 64.5625 47.407C64.5625 47.0672 64.4275 46.7413 64.1872 46.501C63.947 46.2607 63.6211 46.1257 63.2813 46.1257H60.0781V44.8445H63.2813C63.6211 44.8445 63.947 44.7095 64.1872 44.4692C64.4275 44.2289 64.5625 43.903 64.5625 43.5632C64.5625 43.2234 64.4275 42.8975 64.1872 42.6572C63.947 42.417 63.6211 42.282 63.2813 42.282H60.0781V41.0007H63.2813C63.6211 41.0007 63.947 40.8657 64.1872 40.6255C64.4275 40.3852 64.5625 40.0593 64.5625 39.7195C64.5625 39.3797 64.4275 39.0538 64.1872 38.8135C63.947 38.5732 63.6211 38.4382 63.2813 38.4382H60.0781V37.157H63.2813C63.6211 37.157 63.947 37.022 64.1872 36.7817C64.4275 36.5414 64.5625 36.2155 64.5625 35.8757C64.5625 35.5359 64.4275 35.21 64.1872 34.9698C63.947 34.7295 63.6211 34.5945 63.2813 34.5945H60.0781V33.3132H63.2813C63.6211 33.3132 63.947 33.1783 64.1872 32.938C64.4275 32.6977 64.5625 32.3718 64.5625 32.032C64.5625 31.6922 64.4275 31.3663 64.1872 31.126C63.947 30.8857 63.6211 30.7507 63.2813 30.7507H60.0781V29.4695H63.2813C63.6211 29.4695 63.947 29.3345 64.1872 29.0942C64.4275 28.8539 64.5625 28.5281 64.5625 28.1882C64.5625 27.8484 64.4275 27.5225 64.1872 27.2823C63.947 27.042 63.6211 26.907 63.2813 26.907H60.0781V24.3445H59.4375C59.0977 24.3445 58.7718 24.2096 58.5315 23.9693C58.2913 23.729 58.1563 23.4031 58.1563 23.0633C58.1563 22.7235 58.2913 22.3976 58.5315 22.1573C58.7718 21.917 59.0977 21.782 59.4375 21.782ZM30.7888 37.9898L43.6589 24.6072L45.3822 22.8134C45.4721 22.7166 45.5784 22.6364 45.6961 22.5764C45.8093 22.5176 45.93 22.4745 46.0549 22.4483C46.1369 22.4302 46.2207 22.4216 46.3047 22.4226C46.637 22.4214 46.9566 22.5502 47.1952 22.7814C47.4395 23.0178 47.58 23.3414 47.586 23.6812C47.592 24.0211 47.463 24.3495 47.2272 24.5943L42.4866 29.5207L49.5783 36.5356C49.8527 36.7963 50.0726 37.109 50.2252 37.4554C50.3778 37.8018 50.46 38.175 50.4672 38.5535C50.4743 38.9319 50.4062 39.3081 50.2668 39.66C50.1274 40.0119 49.9195 40.3326 49.6552 40.6035L47.0094 43.3198C46.4677 43.8629 45.7367 44.1749 44.9698 44.1904C44.2029 44.206 43.4598 43.9238 42.8966 43.4031L35.8497 36.4267L31.2116 41.2506C31.15 41.3113 31.0836 41.367 31.013 41.4171C30.831 41.5394 30.6209 41.6135 30.4024 41.6325C30.184 41.6516 29.9642 41.6149 29.7638 41.526C29.7063 41.4999 29.6506 41.47 29.5972 41.4363C29.5257 41.3923 29.4592 41.3408 29.3986 41.2826C29.1544 41.0462 29.0138 40.7226 29.0078 40.3827C29.0018 40.0428 29.1308 39.7145 29.3666 39.4696L30.7888 37.9898Z" fill="#FFE3D8" stroke="#282828" stroke-width="6" mask="url(#path-1-inside-1_21_302)"/>
<path d="M13.5081 12.7611L13.5621 12.8135L14.6063 11.7116L17.3866 8.7775L18.4059 7.70185L18.3863 7.68277L19.0066 7.28744C19.6845 6.85545 20.4715 6.62585 21.2754 6.62559L13.5081 12.7611ZM13.5081 12.7611L13.0439 13.4375C12.7763 13.8275 12.5726 14.2566 12.4395 14.7085C13.7235 14.1603 15.1099 13.8749 16.5164 13.8756L16.5173 13.8756C19.2924 13.8786 21.953 14.9824 23.9153 16.9447C23.949 16.9784 23.9825 17.0123 24.0157 17.0464C23.9975 16.9181 23.9882 16.7879 23.9882 16.6568C23.9882 15.9202 24.2808 15.2138 24.8017 14.6929C25.3226 14.172 26.029 13.8794 26.7656 13.8794C27.5023 13.8794 28.2087 14.172 28.7296 14.6929L35.1358 21.0991C35.6567 21.62 35.9493 22.3265 35.9493 23.0631C35.9493 23.7997 35.6567 24.5061 35.1358 25.027C34.615 25.5479 33.9085 25.8405 33.1719 25.8405C32.4353 25.8405 31.7288 25.5479 31.2079 25.027L25.9069 19.726C26.6075 21.1492 26.9826 22.7265 26.9844 24.3427M13.5081 12.7611L21.2758 6.62559C22.3971 6.62581 23.4736 7.06535 24.2746 7.84996L24.2785 7.85379L39.7052 22.8551M26.9844 24.3427C26.9844 24.3424 26.9844 24.3422 26.9844 24.342L25.4844 24.3443L26.9844 24.3427ZM26.9844 24.3427C26.9864 25.6859 26.7268 27.0166 26.2201 28.2606L26.2191 28.2631C25.9175 29 25.5343 29.699 25.0778 30.3476M25.0778 30.3476L28.9142 34.0757M25.0778 30.3476C24.7943 30.7503 24.4826 31.1336 24.1446 31.4944L23.05 30.4687M25.0778 30.3476L24.0954 29.3929L23.05 30.4687M28.9142 34.0757L39.7052 22.8551M28.9142 34.0757L29.9899 35.1211L24.831 27.6948C24.4112 28.7201 23.8076 29.6602 23.05 30.4687M28.9142 34.0757L27.8744 35.1569L23.05 30.4687M39.7052 22.8551L40.7392 21.7799L41.8203 22.8196L40.7746 23.895L39.7052 22.8551ZM22.0541 76.7153C21.3795 76.0629 20.8007 75.3277 20.3287 74.5318H12.0329C11.4111 74.5325 10.8149 74.7798 10.3752 75.2195C9.93553 75.6592 9.68821 76.2553 9.68753 76.8772V78.1551C9.68821 78.777 9.93553 79.3731 10.3752 79.8128C10.8149 80.2525 11.4111 80.4998 12.0329 80.5005H49.1859C49.8077 80.4998 50.4039 80.2525 50.8436 79.8128C51.2831 79.3733 51.5304 78.7775 51.5313 78.1559V76.8764C51.5304 76.2548 51.2831 75.659 50.8436 75.2195C50.4039 74.7798 49.8077 74.5325 49.1859 74.5318H38.3249C37.5604 75.8207 36.5225 76.9395 35.2724 77.803C33.2828 79.1772 30.8787 79.8198 28.4688 79.6215C26.059 79.4232 23.7922 78.3962 22.0541 76.7153Z" fill="#FFE3D8" stroke="#282828" stroke-width="3"/>
</svg>
