<svg width="83" height="82" viewBox="0 0 83 82" fill="none" xmlns="http://www.w3.org/2000/svg">
<mask id="path-1-inside-1_21_303" fill="white">
<path d="M66.4843 17.9383C65.2173 17.9383 63.9787 18.314 62.9252 19.018C61.8717 19.7219 61.0506 20.7224 60.5657 21.893C60.0809 23.0636 59.954 24.3517 60.2012 25.5943C60.4484 26.837 61.0585 27.9785 61.9544 28.8744C62.8504 29.7704 63.9919 30.3805 65.2345 30.6277C66.4772 30.8749 67.7653 30.748 68.9359 30.2631C70.1065 29.7783 71.107 28.9572 71.8109 27.9037C72.5149 26.8502 72.8906 25.6116 72.8906 24.3445C72.8901 22.6457 72.215 21.0165 71.0137 19.8152C69.8124 18.6139 68.1832 17.9388 66.4843 17.9383ZM4.34375 3.84454C3.58353 3.84454 2.84038 4.06997 2.20828 4.49233C1.57618 4.91468 1.08351 5.51499 0.79259 6.21735C0.501665 6.9197 0.425546 7.69255 0.573858 8.43816C0.72217 9.18377 1.08825 9.86866 1.62581 10.4062C2.16337 10.9438 2.84826 11.3099 3.59387 11.4582C4.33949 11.6065 5.11234 11.5304 5.81469 11.2394C6.51704 10.9485 7.11735 10.4559 7.53971 9.82375C7.96207 9.19165 8.1875 8.4485 8.1875 7.68828C8.18669 6.66911 7.78147 5.6919 7.0608 4.97124C6.34013 4.25057 5.36293 3.84535 4.34375 3.84454ZM4.34375 8.96953C4.09034 8.96953 3.84263 8.89439 3.63193 8.7536C3.42123 8.61282 3.257 8.41271 3.16003 8.17859C3.06306 7.94448 3.03768 7.68686 3.08712 7.43832C3.13656 7.18979 3.25858 6.96149 3.43777 6.7823C3.61696 6.60312 3.84525 6.48109 4.09379 6.43165C4.34233 6.38222 4.59995 6.40759 4.83406 6.50456C5.06818 6.60154 5.26828 6.76576 5.40907 6.97646C5.54986 7.18716 5.625 7.43488 5.625 7.68828C5.624 8.02778 5.48869 8.35309 5.24863 8.59316C5.00856 8.83322 4.68325 8.96853 4.34375 8.96953ZM14.5937 0.000793457C13.8335 0.000793457 13.0904 0.226225 12.4583 0.648581C11.8262 1.07094 11.3335 1.67125 11.0426 2.3736C10.7517 3.07595 10.6755 3.8488 10.8239 4.59442C10.9722 5.34003 11.3382 6.02492 11.8758 6.56248C12.4134 7.10003 13.0983 7.46611 13.8439 7.61443C14.5895 7.76274 15.3623 7.68662 16.0647 7.39569C16.767 7.10477 17.3673 6.61211 17.7897 5.98001C18.2121 5.34791 18.4375 4.60476 18.4375 3.84454C18.4367 2.82536 18.0315 1.84816 17.3108 1.12749C16.5901 0.406825 15.6129 0.00160104 14.5937 0.000793457ZM14.5937 5.12579C14.3403 5.12579 14.0926 5.05064 13.8819 4.90986C13.6712 4.76907 13.507 4.56897 13.41 4.33485C13.313 4.10073 13.2877 3.84312 13.3371 3.59458C13.3866 3.34604 13.5086 3.11774 13.6878 2.93856C13.867 2.75937 14.0952 2.63735 14.3438 2.58791C14.5923 2.53847 14.8499 2.56384 15.0841 2.66082C15.3182 2.75779 15.5183 2.92201 15.6591 3.13271C15.7999 3.34342 15.875 3.59113 15.875 3.84454C15.874 4.18404 15.7387 4.50935 15.4986 4.74941C15.2586 4.98948 14.9332 5.12479 14.5937 5.12579ZM53.6719 62.782C52.4048 62.782 51.1662 63.1577 50.1127 63.8616C49.0592 64.5656 48.2381 65.5661 47.7533 66.7367C47.2684 67.9073 47.1415 69.1953 47.3887 70.438C47.6359 71.6807 48.246 72.8222 49.1419 73.7181C50.0379 74.6141 51.1794 75.2242 52.4221 75.4714C53.6647 75.7186 54.9528 75.5917 56.1234 75.1068C57.294 74.622 58.2945 73.8008 58.9985 72.7474C59.7024 71.6939 60.0781 70.4553 60.0781 69.1882C60.0776 67.4893 59.4025 65.8602 58.2012 64.6589C56.9999 63.4576 55.3707 62.7825 53.6719 62.782ZM15.2344 10.2508C14.3474 10.2508 13.4804 10.5138 12.743 11.0065C12.0055 11.4993 11.4308 12.1996 11.0913 13.0191C10.7519 13.8385 10.6631 14.7401 10.8362 15.61C11.0092 16.4799 11.4363 17.2789 12.0634 17.9061C12.6906 18.5332 13.4896 18.9603 14.3595 19.1334C15.2294 19.3064 16.1311 19.2176 16.9505 18.8782C17.7699 18.5388 18.4702 17.964 18.963 17.2265C19.4557 16.4891 19.7187 15.6221 19.7187 14.7351C19.7174 13.5462 19.2446 12.4064 18.4039 11.5657C17.5632 10.725 16.4233 10.2521 15.2344 10.2508ZM15.2344 16.657C14.8543 16.657 14.4827 16.5443 14.1666 16.3331C13.8506 16.1219 13.6043 15.8218 13.4588 15.4706C13.3133 15.1194 13.2753 14.733 13.3494 14.3602C13.4236 13.9874 13.6066 13.645 13.8754 13.3762C14.1442 13.1074 14.4866 12.9244 14.8594 12.8502C15.2322 12.776 15.6187 12.8141 15.9698 12.9596C16.321 13.105 16.6212 13.3514 16.8323 13.6674C17.0435 13.9835 17.1562 14.355 17.1562 14.7351C17.1548 15.2444 16.9518 15.7324 16.5917 16.0925C16.2316 16.4526 15.7436 16.6555 15.2344 16.657ZM60.8653 63.8545C61.3799 64.5464 61.7918 65.3091 62.0881 66.1188C65.2043 64.8042 67.9731 62.7845 70.1766 60.2186C72.3801 57.6526 73.9582 54.6105 74.7868 51.3313C75.6154 48.0522 75.672 44.6255 74.952 41.3209C74.232 38.0162 72.7551 34.9236 70.6374 32.2864C69.8209 32.7139 68.943 33.0119 68.035 33.1697C70.0815 35.4798 71.5445 38.2468 72.3012 41.2388C73.0579 44.2308 73.0864 47.3607 72.3842 50.3659C71.682 53.3712 70.2696 56.1644 68.2654 58.5113C66.2612 60.8582 63.7236 62.6904 60.8653 63.8545ZM23.5625 21.7821H1.78125C1.44144 21.7821 1.11555 21.917 0.875271 22.1573C0.63499 22.3976 0.500002 22.7235 0.500002 23.0633C0.500002 23.4031 0.63499 23.729 0.875271 23.9693C1.11555 24.2096 1.44144 24.3445 1.78125 24.3445H2.42188V26.907H5.625C5.96481 26.907 6.2907 27.042 6.53098 27.2823C6.77126 27.5226 6.90625 27.8484 6.90625 28.1883C6.90625 28.5281 6.77126 28.854 6.53098 29.0942C6.2907 29.3345 5.96481 29.4695 5.625 29.4695H2.42188V30.7508H5.625C5.96481 30.7508 6.2907 30.8857 6.53098 31.126C6.77126 31.3663 6.90625 31.6922 6.90625 32.032C6.90625 32.3718 6.77126 32.6977 6.53098 32.938C6.2907 33.1783 5.96481 33.3132 5.625 33.3132H2.42188V34.5945H5.625C5.96481 34.5945 6.2907 34.7295 6.53098 34.9698C6.77126 35.21 6.90625 35.5359 6.90625 35.8757C6.90625 36.2156 6.77126 36.5414 6.53098 36.7817C6.2907 37.022 5.96481 37.157 5.625 37.157H2.42188V38.4382H5.625C5.96481 38.4382 6.2907 38.5732 6.53098 38.8135C6.77126 39.0538 6.90625 39.3797 6.90625 39.7195C6.90625 40.0593 6.77126 40.3852 6.53098 40.6255C6.2907 40.8657 5.96481 41.0007 5.625 41.0007H2.42188V42.282H5.625C5.96481 42.282 6.2907 42.417 6.53098 42.6573C6.77126 42.8975 6.90625 43.2234 6.90625 43.5632C6.90625 43.903 6.77126 44.2289 6.53098 44.4692C6.2907 44.7095 5.96481 44.8445 5.625 44.8445H2.42188V46.1257H5.625C5.96481 46.1257 6.2907 46.2607 6.53098 46.501C6.77126 46.7413 6.90625 47.0672 6.90625 47.407C6.90625 47.7468 6.77126 48.0727 6.53098 48.313C6.2907 48.5532 5.96481 48.6882 5.625 48.6882H2.42188V49.9695H5.625C5.96481 49.9695 6.2907 50.1045 6.53098 50.3447C6.77126 50.585 6.90625 50.9109 6.90625 51.2507C6.90625 51.5905 6.77126 51.9164 6.53098 52.1567C6.2907 52.397 5.96481 52.532 5.625 52.532H2.42188V53.8132H5.625C5.96481 53.8132 6.2907 53.9482 6.53098 54.1885C6.77126 54.4288 6.90625 54.7547 6.90625 55.0945C6.90625 55.4343 6.77126 55.7602 6.53098 56.0004C6.2907 56.2407 5.96481 56.3757 5.625 56.3757H2.42188V57.657H5.625C5.96481 57.657 6.2907 57.792 6.53098 58.0322C6.77126 58.2725 6.90625 58.5984 6.90625 58.9382C6.90625 59.278 6.77126 59.6039 6.53098 59.8442C6.2907 60.0845 5.96481 60.2195 5.625 60.2195H2.42188V61.5007H5.625C5.96481 61.5007 6.2907 61.6357 6.53098 61.876C6.77126 62.1163 6.90625 62.4421 6.90625 62.782C6.90625 63.1218 6.77126 63.4477 6.53098 63.6879C6.2907 63.9282 5.96481 64.0632 5.625 64.0632H2.42188V65.3445H5.625C5.96481 65.3445 6.2907 65.4794 6.53098 65.7197C6.77126 65.96 6.90625 66.2859 6.90625 66.6257C6.90625 66.9655 6.77126 67.2914 6.53098 67.5317C6.2907 67.772 5.96481 67.907 5.625 67.907H2.42188V69.1882H5.625C5.96481 69.1882 6.2907 69.3232 6.53098 69.5635C6.77126 69.8037 6.90625 70.1296 6.90625 70.4694C6.90625 70.8092 6.77126 71.1351 6.53098 71.3754C6.2907 71.6157 5.96481 71.7507 5.625 71.7507H2.42188V73.0319H5.625C5.96481 73.0319 6.2907 73.1669 6.53098 73.4072C6.77126 73.6475 6.90625 73.9734 6.90625 74.3132C6.90625 74.653 6.77126 74.9789 6.53098 75.2192C6.2907 75.4594 5.96481 75.5944 5.625 75.5944H2.42188V75.6301C2.43363 77.3289 3.11872 78.9536 4.32685 80.1479C5.53498 81.3422 7.1675 82.0085 8.86629 82.0007H16.4775C18.1762 82.0085 19.8088 81.3422 21.0169 80.1479C22.225 78.9536 22.9101 77.3289 22.9219 75.6301V75.5944H19.7187C19.3789 75.5944 19.053 75.4594 18.8128 75.2192C18.5725 74.9789 18.4375 74.653 18.4375 74.3132C18.4375 73.9734 18.5725 73.6475 18.8128 73.4072C19.053 73.1669 19.3789 73.0319 19.7187 73.0319H22.9219V71.7507H19.7187C19.3789 71.7507 19.053 71.6157 18.8128 71.3754C18.5725 71.1351 18.4375 70.8092 18.4375 70.4694C18.4375 70.1296 18.5725 69.8037 18.8128 69.5635C19.053 69.3232 19.3789 69.1882 19.7187 69.1882H22.9219V67.907H19.7187C19.3789 67.907 19.053 67.772 18.8128 67.5317C18.5725 67.2914 18.4375 66.9655 18.4375 66.6257C18.4375 66.2859 18.5725 65.96 18.8128 65.7197C19.053 65.4794 19.3789 65.3445 19.7187 65.3445H22.9219V64.0632H19.7187C19.3789 64.0632 19.053 63.9282 18.8128 63.6879C18.5725 63.4477 18.4375 63.1218 18.4375 62.782C18.4375 62.4421 18.5725 62.1163 18.8128 61.876C19.053 61.6357 19.3789 61.5007 19.7187 61.5007H22.9219V60.2195H19.7187C19.3789 60.2195 19.053 60.0845 18.8128 59.8442C18.5725 59.6039 18.4375 59.278 18.4375 58.9382C18.4375 58.5984 18.5725 58.2725 18.8128 58.0322C19.053 57.792 19.3789 57.657 19.7187 57.657H22.9219V56.3757H19.7187C19.3789 56.3757 19.053 56.2407 18.8128 56.0004C18.5725 55.7602 18.4375 55.4343 18.4375 55.0945C18.4375 54.7547 18.5725 54.4288 18.8128 54.1885C19.053 53.9482 19.3789 53.8132 19.7187 53.8132H22.9219V52.532H19.7187C19.3789 52.532 19.053 52.397 18.8128 52.1567C18.5725 51.9164 18.4375 51.5905 18.4375 51.2507C18.4375 50.9109 18.5725 50.585 18.8128 50.3447C19.053 50.1045 19.3789 49.9695 19.7187 49.9695H22.9219V48.6882H19.7187C19.3789 48.6882 19.053 48.5532 18.8128 48.313C18.5725 48.0727 18.4375 47.7468 18.4375 47.407C18.4375 47.0672 18.5725 46.7413 18.8128 46.501C19.053 46.2607 19.3789 46.1257 19.7187 46.1257H22.9219V44.8445H19.7187C19.3789 44.8445 19.053 44.7095 18.8128 44.4692C18.5725 44.2289 18.4375 43.903 18.4375 43.5632C18.4375 43.2234 18.5725 42.8975 18.8128 42.6573C19.053 42.417 19.3789 42.282 19.7187 42.282H22.9219V41.0007H19.7187C19.3789 41.0007 19.053 40.8657 18.8128 40.6255C18.5725 40.3852 18.4375 40.0593 18.4375 39.7195C18.4375 39.3797 18.5725 39.0538 18.8128 38.8135C19.053 38.5732 19.3789 38.4382 19.7187 38.4382H22.9219V37.157H19.7187C19.3789 37.157 19.053 37.022 18.8128 36.7817C18.5725 36.5414 18.4375 36.2156 18.4375 35.8757C18.4375 35.5359 18.5725 35.21 18.8128 34.9698C19.053 34.7295 19.3789 34.5945 19.7187 34.5945H22.9219V33.3132H19.7187C19.3789 33.3132 19.053 33.1783 18.8128 32.938C18.5725 32.6977 18.4375 32.3718 18.4375 32.032C18.4375 31.6922 18.5725 31.3663 18.8128 31.126C19.053 30.8857 19.3789 30.7508 19.7187 30.7508H22.9219V29.4695H19.7187C19.3789 29.4695 19.053 29.3345 18.8128 29.0942C18.5725 28.854 18.4375 28.5281 18.4375 28.1883C18.4375 27.8484 18.5725 27.5226 18.8128 27.2823C19.053 27.042 19.3789 26.907 19.7187 26.907H22.9219V24.3445H23.5625C23.9023 24.3445 24.2282 24.2096 24.4685 23.9693C24.7088 23.729 24.8437 23.4031 24.8437 23.0633C24.8437 22.7235 24.7088 22.3976 24.4685 22.1573C24.2282 21.917 23.9023 21.7821 23.5625 21.7821ZM52.2112 37.9898L39.3411 24.6072L37.6178 22.8134C37.5279 22.7166 37.4216 22.6364 37.3039 22.5764C37.1907 22.5176 37.07 22.4745 36.9451 22.4483C36.8631 22.4303 36.7793 22.4217 36.6953 22.4226C36.363 22.4214 36.0435 22.5502 35.8048 22.7814C35.5606 23.0178 35.42 23.3414 35.414 23.6812C35.408 24.0211 35.537 24.3495 35.7728 24.5944L40.5134 29.5208L33.4217 36.5356C33.1473 36.7963 32.9274 37.109 32.7748 37.4554C32.6222 37.8018 32.54 38.175 32.5328 38.5535C32.5257 38.9319 32.5938 39.3081 32.7332 39.66C32.8726 40.0119 33.0805 40.3326 33.3448 40.6035L35.9906 43.3198C36.5323 43.8629 37.2633 44.1749 38.0302 44.1904C38.7971 44.206 39.5402 43.9238 40.1034 43.4031L47.1503 36.4267L51.7884 41.2506C51.85 41.3113 51.9164 41.367 51.987 41.4171C52.1691 41.5394 52.3791 41.6135 52.5976 41.6325C52.816 41.6516 53.0358 41.6149 53.2362 41.526C53.2937 41.5 53.3494 41.47 53.4028 41.4363C53.4743 41.3923 53.5409 41.3408 53.6014 41.2826C53.8457 41.0462 53.9862 40.7226 53.9922 40.3827C53.9982 40.0429 53.8692 39.7145 53.6334 39.4696L52.2112 37.9898Z"/>
</mask>
<path d="M66.4843 17.9383C65.2173 17.9383 63.9787 18.314 62.9252 19.018C61.8717 19.7219 61.0506 20.7224 60.5657 21.893C60.0809 23.0636 59.954 24.3517 60.2012 25.5943C60.4484 26.837 61.0585 27.9785 61.9544 28.8744C62.8504 29.7704 63.9919 30.3805 65.2345 30.6277C66.4772 30.8749 67.7653 30.748 68.9359 30.2631C70.1065 29.7783 71.107 28.9572 71.8109 27.9037C72.5149 26.8502 72.8906 25.6116 72.8906 24.3445C72.8901 22.6457 72.215 21.0165 71.0137 19.8152C69.8124 18.6139 68.1832 17.9388 66.4843 17.9383ZM4.34375 3.84454C3.58353 3.84454 2.84038 4.06997 2.20828 4.49233C1.57618 4.91468 1.08351 5.51499 0.79259 6.21735C0.501665 6.9197 0.425546 7.69255 0.573858 8.43816C0.72217 9.18377 1.08825 9.86866 1.62581 10.4062C2.16337 10.9438 2.84826 11.3099 3.59387 11.4582C4.33949 11.6065 5.11234 11.5304 5.81469 11.2394C6.51704 10.9485 7.11735 10.4559 7.53971 9.82375C7.96207 9.19165 8.1875 8.4485 8.1875 7.68828C8.18669 6.66911 7.78147 5.6919 7.0608 4.97124C6.34013 4.25057 5.36293 3.84535 4.34375 3.84454ZM4.34375 8.96953C4.09034 8.96953 3.84263 8.89439 3.63193 8.7536C3.42123 8.61282 3.257 8.41271 3.16003 8.17859C3.06306 7.94448 3.03768 7.68686 3.08712 7.43832C3.13656 7.18979 3.25858 6.96149 3.43777 6.7823C3.61696 6.60312 3.84525 6.48109 4.09379 6.43165C4.34233 6.38222 4.59995 6.40759 4.83406 6.50456C5.06818 6.60154 5.26828 6.76576 5.40907 6.97646C5.54986 7.18716 5.625 7.43488 5.625 7.68828C5.624 8.02778 5.48869 8.35309 5.24863 8.59316C5.00856 8.83322 4.68325 8.96853 4.34375 8.96953ZM14.5937 0.000793457C13.8335 0.000793457 13.0904 0.226225 12.4583 0.648581C11.8262 1.07094 11.3335 1.67125 11.0426 2.3736C10.7517 3.07595 10.6755 3.8488 10.8239 4.59442C10.9722 5.34003 11.3382 6.02492 11.8758 6.56248C12.4134 7.10003 13.0983 7.46611 13.8439 7.61443C14.5895 7.76274 15.3623 7.68662 16.0647 7.39569C16.767 7.10477 17.3673 6.61211 17.7897 5.98001C18.2121 5.34791 18.4375 4.60476 18.4375 3.84454C18.4367 2.82536 18.0315 1.84816 17.3108 1.12749C16.5901 0.406825 15.6129 0.00160104 14.5937 0.000793457ZM14.5937 5.12579C14.3403 5.12579 14.0926 5.05064 13.8819 4.90986C13.6712 4.76907 13.507 4.56897 13.41 4.33485C13.313 4.10073 13.2877 3.84312 13.3371 3.59458C13.3866 3.34604 13.5086 3.11774 13.6878 2.93856C13.867 2.75937 14.0952 2.63735 14.3438 2.58791C14.5923 2.53847 14.8499 2.56384 15.0841 2.66082C15.3182 2.75779 15.5183 2.92201 15.6591 3.13271C15.7999 3.34342 15.875 3.59113 15.875 3.84454C15.874 4.18404 15.7387 4.50935 15.4986 4.74941C15.2586 4.98948 14.9332 5.12479 14.5937 5.12579ZM53.6719 62.782C52.4048 62.782 51.1662 63.1577 50.1127 63.8616C49.0592 64.5656 48.2381 65.5661 47.7533 66.7367C47.2684 67.9073 47.1415 69.1953 47.3887 70.438C47.6359 71.6807 48.246 72.8222 49.1419 73.7181C50.0379 74.6141 51.1794 75.2242 52.4221 75.4714C53.6647 75.7186 54.9528 75.5917 56.1234 75.1068C57.294 74.622 58.2945 73.8008 58.9985 72.7474C59.7024 71.6939 60.0781 70.4553 60.0781 69.1882C60.0776 67.4893 59.4025 65.8602 58.2012 64.6589C56.9999 63.4576 55.3707 62.7825 53.6719 62.782ZM15.2344 10.2508C14.3474 10.2508 13.4804 10.5138 12.743 11.0065C12.0055 11.4993 11.4308 12.1996 11.0913 13.0191C10.7519 13.8385 10.6631 14.7401 10.8362 15.61C11.0092 16.4799 11.4363 17.2789 12.0634 17.9061C12.6906 18.5332 13.4896 18.9603 14.3595 19.1334C15.2294 19.3064 16.1311 19.2176 16.9505 18.8782C17.7699 18.5388 18.4702 17.964 18.963 17.2265C19.4557 16.4891 19.7187 15.6221 19.7187 14.7351C19.7174 13.5462 19.2446 12.4064 18.4039 11.5657C17.5632 10.725 16.4233 10.2521 15.2344 10.2508ZM15.2344 16.657C14.8543 16.657 14.4827 16.5443 14.1666 16.3331C13.8506 16.1219 13.6043 15.8218 13.4588 15.4706C13.3133 15.1194 13.2753 14.733 13.3494 14.3602C13.4236 13.9874 13.6066 13.645 13.8754 13.3762C14.1442 13.1074 14.4866 12.9244 14.8594 12.8502C15.2322 12.776 15.6187 12.8141 15.9698 12.9596C16.321 13.105 16.6212 13.3514 16.8323 13.6674C17.0435 13.9835 17.1562 14.355 17.1562 14.7351C17.1548 15.2444 16.9518 15.7324 16.5917 16.0925C16.2316 16.4526 15.7436 16.6555 15.2344 16.657ZM60.8653 63.8545C61.3799 64.5464 61.7918 65.3091 62.0881 66.1188C65.2043 64.8042 67.9731 62.7845 70.1766 60.2186C72.3801 57.6526 73.9582 54.6105 74.7868 51.3313C75.6154 48.0522 75.672 44.6255 74.952 41.3209C74.232 38.0162 72.7551 34.9236 70.6374 32.2864C69.8209 32.7139 68.943 33.0119 68.035 33.1697C70.0815 35.4798 71.5445 38.2468 72.3012 41.2388C73.0579 44.2308 73.0864 47.3607 72.3842 50.3659C71.682 53.3712 70.2696 56.1644 68.2654 58.5113C66.2612 60.8582 63.7236 62.6904 60.8653 63.8545ZM23.5625 21.7821H1.78125C1.44144 21.7821 1.11555 21.917 0.875271 22.1573C0.63499 22.3976 0.500002 22.7235 0.500002 23.0633C0.500002 23.4031 0.63499 23.729 0.875271 23.9693C1.11555 24.2096 1.44144 24.3445 1.78125 24.3445H2.42188V26.907H5.625C5.96481 26.907 6.2907 27.042 6.53098 27.2823C6.77126 27.5226 6.90625 27.8484 6.90625 28.1883C6.90625 28.5281 6.77126 28.854 6.53098 29.0942C6.2907 29.3345 5.96481 29.4695 5.625 29.4695H2.42188V30.7508H5.625C5.96481 30.7508 6.2907 30.8857 6.53098 31.126C6.77126 31.3663 6.90625 31.6922 6.90625 32.032C6.90625 32.3718 6.77126 32.6977 6.53098 32.938C6.2907 33.1783 5.96481 33.3132 5.625 33.3132H2.42188V34.5945H5.625C5.96481 34.5945 6.2907 34.7295 6.53098 34.9698C6.77126 35.21 6.90625 35.5359 6.90625 35.8757C6.90625 36.2156 6.77126 36.5414 6.53098 36.7817C6.2907 37.022 5.96481 37.157 5.625 37.157H2.42188V38.4382H5.625C5.96481 38.4382 6.2907 38.5732 6.53098 38.8135C6.77126 39.0538 6.90625 39.3797 6.90625 39.7195C6.90625 40.0593 6.77126 40.3852 6.53098 40.6255C6.2907 40.8657 5.96481 41.0007 5.625 41.0007H2.42188V42.282H5.625C5.96481 42.282 6.2907 42.417 6.53098 42.6573C6.77126 42.8975 6.90625 43.2234 6.90625 43.5632C6.90625 43.903 6.77126 44.2289 6.53098 44.4692C6.2907 44.7095 5.96481 44.8445 5.625 44.8445H2.42188V46.1257H5.625C5.96481 46.1257 6.2907 46.2607 6.53098 46.501C6.77126 46.7413 6.90625 47.0672 6.90625 47.407C6.90625 47.7468 6.77126 48.0727 6.53098 48.313C6.2907 48.5532 5.96481 48.6882 5.625 48.6882H2.42188V49.9695H5.625C5.96481 49.9695 6.2907 50.1045 6.53098 50.3447C6.77126 50.585 6.90625 50.9109 6.90625 51.2507C6.90625 51.5905 6.77126 51.9164 6.53098 52.1567C6.2907 52.397 5.96481 52.532 5.625 52.532H2.42188V53.8132H5.625C5.96481 53.8132 6.2907 53.9482 6.53098 54.1885C6.77126 54.4288 6.90625 54.7547 6.90625 55.0945C6.90625 55.4343 6.77126 55.7602 6.53098 56.0004C6.2907 56.2407 5.96481 56.3757 5.625 56.3757H2.42188V57.657H5.625C5.96481 57.657 6.2907 57.792 6.53098 58.0322C6.77126 58.2725 6.90625 58.5984 6.90625 58.9382C6.90625 59.278 6.77126 59.6039 6.53098 59.8442C6.2907 60.0845 5.96481 60.2195 5.625 60.2195H2.42188V61.5007H5.625C5.96481 61.5007 6.2907 61.6357 6.53098 61.876C6.77126 62.1163 6.90625 62.4421 6.90625 62.782C6.90625 63.1218 6.77126 63.4477 6.53098 63.6879C6.2907 63.9282 5.96481 64.0632 5.625 64.0632H2.42188V65.3445H5.625C5.96481 65.3445 6.2907 65.4794 6.53098 65.7197C6.77126 65.96 6.90625 66.2859 6.90625 66.6257C6.90625 66.9655 6.77126 67.2914 6.53098 67.5317C6.2907 67.772 5.96481 67.907 5.625 67.907H2.42188V69.1882H5.625C5.96481 69.1882 6.2907 69.3232 6.53098 69.5635C6.77126 69.8037 6.90625 70.1296 6.90625 70.4694C6.90625 70.8092 6.77126 71.1351 6.53098 71.3754C6.2907 71.6157 5.96481 71.7507 5.625 71.7507H2.42188V73.0319H5.625C5.96481 73.0319 6.2907 73.1669 6.53098 73.4072C6.77126 73.6475 6.90625 73.9734 6.90625 74.3132C6.90625 74.653 6.77126 74.9789 6.53098 75.2192C6.2907 75.4594 5.96481 75.5944 5.625 75.5944H2.42188V75.6301C2.43363 77.3289 3.11872 78.9536 4.32685 80.1479C5.53498 81.3422 7.1675 82.0085 8.86629 82.0007H16.4775C18.1762 82.0085 19.8088 81.3422 21.0169 80.1479C22.225 78.9536 22.9101 77.3289 22.9219 75.6301V75.5944H19.7187C19.3789 75.5944 19.053 75.4594 18.8128 75.2192C18.5725 74.9789 18.4375 74.653 18.4375 74.3132C18.4375 73.9734 18.5725 73.6475 18.8128 73.4072C19.053 73.1669 19.3789 73.0319 19.7187 73.0319H22.9219V71.7507H19.7187C19.3789 71.7507 19.053 71.6157 18.8128 71.3754C18.5725 71.1351 18.4375 70.8092 18.4375 70.4694C18.4375 70.1296 18.5725 69.8037 18.8128 69.5635C19.053 69.3232 19.3789 69.1882 19.7187 69.1882H22.9219V67.907H19.7187C19.3789 67.907 19.053 67.772 18.8128 67.5317C18.5725 67.2914 18.4375 66.9655 18.4375 66.6257C18.4375 66.2859 18.5725 65.96 18.8128 65.7197C19.053 65.4794 19.3789 65.3445 19.7187 65.3445H22.9219V64.0632H19.7187C19.3789 64.0632 19.053 63.9282 18.8128 63.6879C18.5725 63.4477 18.4375 63.1218 18.4375 62.782C18.4375 62.4421 18.5725 62.1163 18.8128 61.876C19.053 61.6357 19.3789 61.5007 19.7187 61.5007H22.9219V60.2195H19.7187C19.3789 60.2195 19.053 60.0845 18.8128 59.8442C18.5725 59.6039 18.4375 59.278 18.4375 58.9382C18.4375 58.5984 18.5725 58.2725 18.8128 58.0322C19.053 57.792 19.3789 57.657 19.7187 57.657H22.9219V56.3757H19.7187C19.3789 56.3757 19.053 56.2407 18.8128 56.0004C18.5725 55.7602 18.4375 55.4343 18.4375 55.0945C18.4375 54.7547 18.5725 54.4288 18.8128 54.1885C19.053 53.9482 19.3789 53.8132 19.7187 53.8132H22.9219V52.532H19.7187C19.3789 52.532 19.053 52.397 18.8128 52.1567C18.5725 51.9164 18.4375 51.5905 18.4375 51.2507C18.4375 50.9109 18.5725 50.585 18.8128 50.3447C19.053 50.1045 19.3789 49.9695 19.7187 49.9695H22.9219V48.6882H19.7187C19.3789 48.6882 19.053 48.5532 18.8128 48.313C18.5725 48.0727 18.4375 47.7468 18.4375 47.407C18.4375 47.0672 18.5725 46.7413 18.8128 46.501C19.053 46.2607 19.3789 46.1257 19.7187 46.1257H22.9219V44.8445H19.7187C19.3789 44.8445 19.053 44.7095 18.8128 44.4692C18.5725 44.2289 18.4375 43.903 18.4375 43.5632C18.4375 43.2234 18.5725 42.8975 18.8128 42.6573C19.053 42.417 19.3789 42.282 19.7187 42.282H22.9219V41.0007H19.7187C19.3789 41.0007 19.053 40.8657 18.8128 40.6255C18.5725 40.3852 18.4375 40.0593 18.4375 39.7195C18.4375 39.3797 18.5725 39.0538 18.8128 38.8135C19.053 38.5732 19.3789 38.4382 19.7187 38.4382H22.9219V37.157H19.7187C19.3789 37.157 19.053 37.022 18.8128 36.7817C18.5725 36.5414 18.4375 36.2156 18.4375 35.8757C18.4375 35.5359 18.5725 35.21 18.8128 34.9698C19.053 34.7295 19.3789 34.5945 19.7187 34.5945H22.9219V33.3132H19.7187C19.3789 33.3132 19.053 33.1783 18.8128 32.938C18.5725 32.6977 18.4375 32.3718 18.4375 32.032C18.4375 31.6922 18.5725 31.3663 18.8128 31.126C19.053 30.8857 19.3789 30.7508 19.7187 30.7508H22.9219V29.4695H19.7187C19.3789 29.4695 19.053 29.3345 18.8128 29.0942C18.5725 28.854 18.4375 28.5281 18.4375 28.1883C18.4375 27.8484 18.5725 27.5226 18.8128 27.2823C19.053 27.042 19.3789 26.907 19.7187 26.907H22.9219V24.3445H23.5625C23.9023 24.3445 24.2282 24.2096 24.4685 23.9693C24.7088 23.729 24.8437 23.4031 24.8437 23.0633C24.8437 22.7235 24.7088 22.3976 24.4685 22.1573C24.2282 21.917 23.9023 21.7821 23.5625 21.7821ZM52.2112 37.9898L39.3411 24.6072L37.6178 22.8134C37.5279 22.7166 37.4216 22.6364 37.3039 22.5764C37.1907 22.5176 37.07 22.4745 36.9451 22.4483C36.8631 22.4303 36.7793 22.4217 36.6953 22.4226C36.363 22.4214 36.0435 22.5502 35.8048 22.7814C35.5606 23.0178 35.42 23.3414 35.414 23.6812C35.408 24.0211 35.537 24.3495 35.7728 24.5944L40.5134 29.5208L33.4217 36.5356C33.1473 36.7963 32.9274 37.109 32.7748 37.4554C32.6222 37.8018 32.54 38.175 32.5328 38.5535C32.5257 38.9319 32.5938 39.3081 32.7332 39.66C32.8726 40.0119 33.0805 40.3326 33.3448 40.6035L35.9906 43.3198C36.5323 43.8629 37.2633 44.1749 38.0302 44.1904C38.7971 44.206 39.5402 43.9238 40.1034 43.4031L47.1503 36.4267L51.7884 41.2506C51.85 41.3113 51.9164 41.367 51.987 41.4171C52.1691 41.5394 52.3791 41.6135 52.5976 41.6325C52.816 41.6516 53.0358 41.6149 53.2362 41.526C53.2937 41.5 53.3494 41.47 53.4028 41.4363C53.4743 41.3923 53.5409 41.3408 53.6014 41.2826C53.8457 41.0462 53.9862 40.7226 53.9922 40.3827C53.9982 40.0429 53.8692 39.7145 53.6334 39.4696L52.2112 37.9898Z" fill="#ADC4FF" stroke="#282828" stroke-width="6" mask="url(#path-1-inside-1_21_303)"/>
<path d="M69.4919 12.7611L69.4379 12.8135L68.3937 11.7116L65.6134 8.7775L64.5941 7.70185L64.6137 7.68277L63.9934 7.28744C63.3155 6.85545 62.5285 6.62585 61.7246 6.6256L69.4919 12.7611ZM69.4919 12.7611L69.9561 13.4375C70.2237 13.8275 70.4274 14.2566 70.5605 14.7085C69.2765 14.1603 67.8901 13.8749 66.4836 13.8756L66.4827 13.8756C63.7076 13.8786 61.047 14.9824 59.0847 16.9447C59.051 16.9784 59.0175 17.0123 58.9843 17.0464C59.0025 16.9181 59.0118 16.7879 59.0118 16.6568C59.0118 15.9202 58.7192 15.2138 58.1983 14.6929C57.6774 14.172 56.971 13.8794 56.2343 13.8794C55.4977 13.8794 54.7913 14.172 54.2704 14.6929L47.8642 21.0991C47.3433 21.62 47.0507 22.3265 47.0507 23.0631C47.0507 23.7997 47.3433 24.5061 47.8642 25.027C48.385 25.5479 49.0915 25.8405 49.8281 25.8405C50.5647 25.8405 51.2712 25.5479 51.792 25.027L57.0931 19.726C56.3925 21.1492 56.0174 22.7265 56.0156 24.3427M69.4919 12.7611L61.7242 6.6256C60.6029 6.62582 59.5264 7.06535 58.7254 7.84997L58.7215 7.8538L43.2948 22.8551M56.0156 24.3427C56.0156 24.3424 56.0156 24.3422 56.0156 24.342L57.5156 24.3443L56.0156 24.3427ZM56.0156 24.3427C56.0136 25.6859 56.2732 27.0166 56.7798 28.2606L56.7809 28.2631C57.0825 29 57.4657 29.699 57.9222 30.3476M57.9222 30.3476L54.0858 34.0757M57.9222 30.3476C58.2056 30.7503 58.5174 31.1336 58.8554 31.4944L59.95 30.4687M57.9222 30.3476L58.9046 29.393L59.95 30.4687M54.0858 34.0757L43.2948 22.8551M54.0858 34.0757L53.01 35.1211M54.0858 34.0757L55.1256 35.1569L59.95 30.4687M43.2948 22.8551L42.2608 21.7799L41.1797 22.8196M43.2948 22.8551L42.2254 23.895L41.1797 22.8196M41.1797 22.8196L53.01 35.1211M41.1797 22.8196L57.6758 6.77841L53.01 35.1211M53.01 35.1211L59.95 30.4687M33.8141 74.5318H44.6751C45.4396 75.8207 46.4775 76.9395 47.7276 77.803C49.7172 79.1772 52.1213 79.8198 54.5312 79.6215C56.941 79.4232 59.2078 78.3962 60.9459 76.7153C61.6205 76.063 62.1993 75.3277 62.6713 74.5318H70.9671C71.5889 74.5325 72.1851 74.7798 72.6248 75.2195C73.0645 75.6592 73.3118 76.2553 73.3125 76.8772V78.1552C73.3118 78.777 73.0645 79.3731 72.6248 79.8128C72.1851 80.2525 71.5889 80.4999 70.9671 80.5005H33.8141C33.1923 80.4999 32.5961 80.2525 32.1564 79.8128C31.7169 79.3733 31.4696 78.7775 31.4687 78.1559V76.8764C31.4696 76.2549 31.7169 75.659 32.1564 75.2195C32.5961 74.7798 33.1923 74.5325 33.8141 74.5318Z" fill="#ADC4FF" stroke="#282828" stroke-width="3"/>
</svg>
